<svg xmlns="http://www.w3.org/2000/svg" width="520" height="61.31" viewBox="0 0 520 61.31">
  <g id="top01_13" transform="translate(-90 -13.69)">
    <g id="그룹_19" data-name="그룹 19" transform="translate(-941.33 202.493)">
      <path id="패스_1" data-name="패스 1" d="M96.334,26.993H.489a.488.488,0,1,1,0-.975H96.334a.488.488,0,0,1,0,.975" transform="translate(1031.33 -154.487)" fill="#fff"/>
      <path id="패스_2" data-name="패스 2" d="M58.591,11.717H29.141a.488.488,0,1,1,0-.975H58.591a.488.488,0,1,1,0,.975" transform="translate(1069.072 -174.635)" fill="#fff"/>
      <path id="패스_3" data-name="패스 3" d="M25.757,11.717H.486a.488.488,0,0,1,0-.975h25.27a.488.488,0,0,1,0,.975" transform="translate(1031.331 -174.635)" fill="#fff"/>
      <path id="패스_4" data-name="패스 4" d="M33.223,9.552c-2.353,2.877-5.667,5.7-7.966,9.4a12,12,0,0,0-2.044,6.108c-.237,2.2.555,4.459,1.368,6.7.553-2.822,1.133-5.328,2.26-6.932a43.251,43.251,0,0,1,4.283-4.917,42.139,42.139,0,0,0,6.772-8.7,16.09,16.09,0,0,0,1.918-5.832,12.992,12.992,0,0,0-.151-2.943A11.56,11.56,0,0,0,38.607,0c-1.972,2.822-4.554,3.639-7.262,5.07A32.139,32.139,0,0,0,22.2,11.533c-.68.743-1.338,1.582-1.949,2.387a32.6,32.6,0,0,0-1.63,2.824,28.572,28.572,0,0,0-1.071,3.21,26.94,26.94,0,0,0-.32,3.335,12.976,12.976,0,0,0,4.817,9.559c-.9-2.58-1.719-5.277-1.3-8A13.254,13.254,0,0,1,23.7,17.873a27.316,27.316,0,0,1,4.8-4.705c1.642-1.324,3.249-2.469,4.724-3.616" transform="translate(1054.041 -188.803)" fill="#fff"/>
      <path id="패스_5" data-name="패스 5" d="M36.729,10.251c-4.58.955-9.517,4.345-13.784,8.962a95.253,95.253,0,0,0,9.882-4.266c3.7-1.779,6.621-3.2,10.757-3.57a8.578,8.578,0,0,0-5.69-3.709A12.722,12.722,0,0,0,29.9,8.825a15.3,15.3,0,0,0-8.084,9.357c4.51-4.77,10.17-7.861,14.91-7.931" transform="translate(1060.089 -178.983)" fill="#fff"/>
      <path id="패스_6" data-name="패스 6" d="M16.1,12.162c1.045,3.6,3.147,8.124,7.246,11-1.075-2.771-1.746-5.253-2.871-7.889A88.913,88.913,0,0,0,16,6.433c-2.515,2.4-3.63,7.153-1.786,11.44,1.512,3.751,5.021,6.394,8.284,6.561a16.326,16.326,0,0,1-6.4-12.272" transform="translate(1048.867 -180.327)" fill="#fff"/>
      <path id="패스_7" data-name="패스 7" d="M7.147,29.216a6.89,6.89,0,0,1-2.7-.518,6.607,6.607,0,0,1-2.132-1.4,6.228,6.228,0,0,1-1.4-2.067,6.537,6.537,0,0,1-.5-2.552v-.035A6.425,6.425,0,0,1,.92,20.1a6.623,6.623,0,0,1,1.407-2.086A6.521,6.521,0,0,1,4.469,16.6a6.97,6.97,0,0,1,2.713-.518,6.9,6.9,0,0,1,2.7.518,6.773,6.773,0,0,1,2.134,1.4,6.26,6.26,0,0,1,1.4,2.069,6.524,6.524,0,0,1,.5,2.548v.037a6.449,6.449,0,0,1-.506,2.55A6.673,6.673,0,0,1,12,27.286,6.479,6.479,0,0,1,9.859,28.7a6.969,6.969,0,0,1-2.713.518m.035-2.576a3.833,3.833,0,0,0,1.542-.307,3.587,3.587,0,0,0,1.21-.855,4.081,4.081,0,0,0,.778-1.259,4.214,4.214,0,0,0,.281-1.537v-.035a4.266,4.266,0,0,0-.281-1.542,3.809,3.809,0,0,0-2.023-2.132,3.732,3.732,0,0,0-1.542-.318,3.769,3.769,0,0,0-1.551.309,3.531,3.531,0,0,0-1.2.855,4.043,4.043,0,0,0-.78,1.259,4.159,4.159,0,0,0-.281,1.533v.037a4.238,4.238,0,0,0,.281,1.544A3.833,3.833,0,0,0,5.63,26.324a3.713,3.713,0,0,0,1.551.316" transform="translate(1031.878 -167.609)" fill="#fff"/>
      <path id="패스_8" data-name="패스 8" d="M6.492,20.873q1.916-.2,1.772-1.8H7.145v-2.9h2.924v2.448A3.356,3.356,0,0,1,9.2,21.21a3.609,3.609,0,0,1-2.471.806Z" transform="translate(1039.915 -167.474)" fill="#fff"/>
      <path id="패스_9" data-name="패스 9" d="M14.178,18.75H10.313V16.174H20.836V18.75H16.971V28.876H14.178Z" transform="translate(1044.929 -167.484)" fill="#fff"/>
      <path id="패스_10" data-name="패스 10" d="M15.375,16.174h2.8V21.2h5.151V16.174h2.8v12.7h-2.8v-5.1H18.171v5.1h-2.8Z" transform="translate(1051.604 -167.484)" fill="#fff"/>
      <path id="패스_11" data-name="패스 11" d="M25.9,16.135h2.576l5.441,12.792H31L29.837,26.08H24.467L23.3,28.927h-2.85Zm2.938,7.476-1.688-4.12-1.688,4.12Z" transform="translate(1058.298 -167.536)" fill="#fff"/>
      <path id="패스_12" data-name="패스 12" d="M26.7,16.174h2.578l5.95,7.82v-7.82h2.759v12.7H35.615L29.463,20.8v8.075H26.7Z" transform="translate(1066.542 -167.484)" fill="#fff"/>
      <path id="패스_13" data-name="패스 13" d="M32.486,16.174h2.8v5.553l5.151-5.553h3.379l-5.174,5.39,5.407,7.311H40.689L36.75,23.469,35.282,24.99v3.885h-2.8Z" transform="translate(1074.141 -167.484)" fill="#fff"/>
      <path id="패스_14" data-name="패스 14" d="M42.821,29.161a8.437,8.437,0,0,1-2.85-.5,7.516,7.516,0,0,1-2.538-1.533l1.651-1.979a8.289,8.289,0,0,0,1.786,1.126,4.772,4.772,0,0,0,2,.416,2.44,2.44,0,0,0,1.352-.316,1,1,0,0,0,.483-.88v-.037a1.125,1.125,0,0,0-.1-.481,1.015,1.015,0,0,0-.383-.39,3.992,3.992,0,0,0-.783-.362c-.334-.121-.769-.249-1.3-.381a15.97,15.97,0,0,1-1.749-.527,4.929,4.929,0,0,1-1.328-.718,2.889,2.889,0,0,1-.845-1.061,3.679,3.679,0,0,1-.3-1.577v-.037a3.685,3.685,0,0,1,.325-1.57,3.616,3.616,0,0,1,.91-1.208,4.123,4.123,0,0,1,1.4-.778A5.627,5.627,0,0,1,42.35,16.1a7.368,7.368,0,0,1,4.717,1.616l-1.449,2.1a9.3,9.3,0,0,0-1.672-.915,4.23,4.23,0,0,0-1.633-.337,1.992,1.992,0,0,0-1.224.316.972.972,0,0,0-.409.792v.037a1.14,1.14,0,0,0,.118.534,1.045,1.045,0,0,0,.43.406,3.835,3.835,0,0,0,.845.346q.533.164,1.356.381a12.823,12.823,0,0,1,1.719.574,4.751,4.751,0,0,1,1.273.759,2.889,2.889,0,0,1,.78,1.045,3.524,3.524,0,0,1,.265,1.433v.037a3.933,3.933,0,0,1-.341,1.677,3.464,3.464,0,0,1-.957,1.236A4.25,4.25,0,0,1,44.7,28.9a6.3,6.3,0,0,1-1.883.265" transform="translate(1080.683 -167.589)" fill="#fff"/>
      <path id="패스_15" data-name="패스 15" d="M44.189,12.865a2.487,2.487,0,1,1,2.485-2.487,2.488,2.488,0,0,1-2.485,2.487m0-4.742a2.255,2.255,0,1,0,2.255,2.255,2.259,2.259,0,0,0-2.255-2.255" transform="translate(1086.331 -178.399)" fill="#fff"/>
      <path id="패스_16" data-name="패스 16" d="M43.948,11.247l-.676-1.238h-.5v1.238h-.351V8.335h.869c.567,0,.968.211.968.817a.782.782,0,0,1-.627.82l.711,1.275ZM42.773,9.715h.467c.434,0,.674-.183.674-.562s-.239-.518-.674-.518h-.467Z" transform="translate(1087.28 -177.811)" fill="#fff"/>
    </g>
    <line id="선_1" data-name="선 1" x1="82.5" transform="translate(236 56.5)" fill="none" stroke="#fff" stroke-width="1"/>
    <text id="나의_일상에_맞는_티_라이프를_추천해줘_" data-name="나의 일상에 맞는 &apos;티&apos; 라이프를 추천해줘!" transform="translate(480 62)" fill="#fff" font-size="17" font-family="Happiness-Sans-Regular, Happiness Sans" letter-spacing="-0.06em"><tspan x="-129.82" y="0">나의 일상에 맞는 &apos;티&apos; 라이프를 추천해줘!</tspan></text>
  </g>
</svg>
