<svg xmlns="http://www.w3.org/2000/svg" width="518.12" height="61.31" viewBox="0 0 518.12 61.31">
  <g id="top01_13" transform="translate(-90 -13.69)">
    <g id="그룹_19" data-name="그룹 19" transform="translate(-941.33 202.493)">
      <path id="패스_1" data-name="패스 1" d="M96.334,26.993H.489a.488.488,0,1,1,0-.975H96.334a.488.488,0,0,1,0,.975" transform="translate(1031.33 -154.487)" fill="#fff"/>
      <path id="패스_2" data-name="패스 2" d="M58.591,11.717H29.141a.488.488,0,1,1,0-.975H58.591a.488.488,0,1,1,0,.975" transform="translate(1069.072 -174.635)" fill="#fff"/>
      <path id="패스_3" data-name="패스 3" d="M25.757,11.717H.486a.488.488,0,0,1,0-.975h25.27a.488.488,0,0,1,0,.975" transform="translate(1031.331 -174.635)" fill="#fff"/>
      <path id="패스_4" data-name="패스 4" d="M33.223,9.552c-2.353,2.877-5.667,5.7-7.966,9.4a12,12,0,0,0-2.044,6.108c-.237,2.2.555,4.459,1.368,6.7.553-2.822,1.133-5.328,2.26-6.932a43.251,43.251,0,0,1,4.283-4.917,42.139,42.139,0,0,0,6.772-8.7,16.09,16.09,0,0,0,1.918-5.832,12.992,12.992,0,0,0-.151-2.943A11.56,11.56,0,0,0,38.607,0c-1.972,2.822-4.554,3.639-7.262,5.07A32.139,32.139,0,0,0,22.2,11.533c-.68.743-1.338,1.582-1.949,2.387a32.6,32.6,0,0,0-1.63,2.824,28.572,28.572,0,0,0-1.071,3.21,26.94,26.94,0,0,0-.32,3.335,12.976,12.976,0,0,0,4.817,9.559c-.9-2.58-1.719-5.277-1.3-8A13.254,13.254,0,0,1,23.7,17.873a27.316,27.316,0,0,1,4.8-4.705c1.642-1.324,3.249-2.469,4.724-3.616" transform="translate(1054.041 -188.803)" fill="#fff"/>
      <path id="패스_5" data-name="패스 5" d="M36.729,10.251c-4.58.955-9.517,4.345-13.784,8.962a95.253,95.253,0,0,0,9.882-4.266c3.7-1.779,6.621-3.2,10.757-3.57a8.578,8.578,0,0,0-5.69-3.709A12.722,12.722,0,0,0,29.9,8.825a15.3,15.3,0,0,0-8.084,9.357c4.51-4.77,10.17-7.861,14.91-7.931" transform="translate(1060.089 -178.983)" fill="#fff"/>
      <path id="패스_6" data-name="패스 6" d="M16.1,12.162c1.045,3.6,3.147,8.124,7.246,11-1.075-2.771-1.746-5.253-2.871-7.889A88.913,88.913,0,0,0,16,6.433c-2.515,2.4-3.63,7.153-1.786,11.44,1.512,3.751,5.021,6.394,8.284,6.561a16.326,16.326,0,0,1-6.4-12.272" transform="translate(1048.867 -180.327)" fill="#fff"/>
      <path id="패스_7" data-name="패스 7" d="M7.147,29.216a6.89,6.89,0,0,1-2.7-.518,6.607,6.607,0,0,1-2.132-1.4,6.228,6.228,0,0,1-1.4-2.067,6.537,6.537,0,0,1-.5-2.552v-.035A6.425,6.425,0,0,1,.92,20.1a6.623,6.623,0,0,1,1.407-2.086A6.521,6.521,0,0,1,4.469,16.6a6.97,6.97,0,0,1,2.713-.518,6.9,6.9,0,0,1,2.7.518,6.773,6.773,0,0,1,2.134,1.4,6.26,6.26,0,0,1,1.4,2.069,6.524,6.524,0,0,1,.5,2.548v.037a6.449,6.449,0,0,1-.506,2.55A6.673,6.673,0,0,1,12,27.286,6.479,6.479,0,0,1,9.859,28.7a6.969,6.969,0,0,1-2.713.518m.035-2.576a3.833,3.833,0,0,0,1.542-.307,3.587,3.587,0,0,0,1.21-.855,4.081,4.081,0,0,0,.778-1.259,4.214,4.214,0,0,0,.281-1.537v-.035a4.266,4.266,0,0,0-.281-1.542,3.809,3.809,0,0,0-2.023-2.132,3.732,3.732,0,0,0-1.542-.318,3.769,3.769,0,0,0-1.551.309,3.531,3.531,0,0,0-1.2.855,4.043,4.043,0,0,0-.78,1.259,4.159,4.159,0,0,0-.281,1.533v.037a4.238,4.238,0,0,0,.281,1.544A3.833,3.833,0,0,0,5.63,26.324a3.713,3.713,0,0,0,1.551.316" transform="translate(1031.878 -167.609)" fill="#fff"/>
      <path id="패스_8" data-name="패스 8" d="M6.492,20.873q1.916-.2,1.772-1.8H7.145v-2.9h2.924v2.448A3.356,3.356,0,0,1,9.2,21.21a3.609,3.609,0,0,1-2.471.806Z" transform="translate(1039.915 -167.474)" fill="#fff"/>
      <path id="패스_9" data-name="패스 9" d="M14.178,18.75H10.313V16.174H20.836V18.75H16.971V28.876H14.178Z" transform="translate(1044.929 -167.484)" fill="#fff"/>
      <path id="패스_10" data-name="패스 10" d="M15.375,16.174h2.8V21.2h5.151V16.174h2.8v12.7h-2.8v-5.1H18.171v5.1h-2.8Z" transform="translate(1051.604 -167.484)" fill="#fff"/>
      <path id="패스_11" data-name="패스 11" d="M25.9,16.135h2.576l5.441,12.792H31L29.837,26.08H24.467L23.3,28.927h-2.85Zm2.938,7.476-1.688-4.12-1.688,4.12Z" transform="translate(1058.298 -167.536)" fill="#fff"/>
      <path id="패스_12" data-name="패스 12" d="M26.7,16.174h2.578l5.95,7.82v-7.82h2.759v12.7H35.615L29.463,20.8v8.075H26.7Z" transform="translate(1066.542 -167.484)" fill="#fff"/>
      <path id="패스_13" data-name="패스 13" d="M32.486,16.174h2.8v5.553l5.151-5.553h3.379l-5.174,5.39,5.407,7.311H40.689L36.75,23.469,35.282,24.99v3.885h-2.8Z" transform="translate(1074.141 -167.484)" fill="#fff"/>
      <path id="패스_14" data-name="패스 14" d="M42.821,29.161a8.437,8.437,0,0,1-2.85-.5,7.516,7.516,0,0,1-2.538-1.533l1.651-1.979a8.289,8.289,0,0,0,1.786,1.126,4.772,4.772,0,0,0,2,.416,2.44,2.44,0,0,0,1.352-.316,1,1,0,0,0,.483-.88v-.037a1.125,1.125,0,0,0-.1-.481,1.015,1.015,0,0,0-.383-.39,3.992,3.992,0,0,0-.783-.362c-.334-.121-.769-.249-1.3-.381a15.97,15.97,0,0,1-1.749-.527,4.929,4.929,0,0,1-1.328-.718,2.889,2.889,0,0,1-.845-1.061,3.679,3.679,0,0,1-.3-1.577v-.037a3.685,3.685,0,0,1,.325-1.57,3.616,3.616,0,0,1,.91-1.208,4.123,4.123,0,0,1,1.4-.778A5.627,5.627,0,0,1,42.35,16.1a7.368,7.368,0,0,1,4.717,1.616l-1.449,2.1a9.3,9.3,0,0,0-1.672-.915,4.23,4.23,0,0,0-1.633-.337,1.992,1.992,0,0,0-1.224.316.972.972,0,0,0-.409.792v.037a1.14,1.14,0,0,0,.118.534,1.045,1.045,0,0,0,.43.406,3.835,3.835,0,0,0,.845.346q.533.164,1.356.381a12.823,12.823,0,0,1,1.719.574,4.751,4.751,0,0,1,1.273.759,2.889,2.889,0,0,1,.78,1.045,3.524,3.524,0,0,1,.265,1.433v.037a3.933,3.933,0,0,1-.341,1.677,3.464,3.464,0,0,1-.957,1.236A4.25,4.25,0,0,1,44.7,28.9a6.3,6.3,0,0,1-1.883.265" transform="translate(1080.683 -167.589)" fill="#fff"/>
      <path id="패스_15" data-name="패스 15" d="M44.189,12.865a2.487,2.487,0,1,1,2.485-2.487,2.488,2.488,0,0,1-2.485,2.487m0-4.742a2.255,2.255,0,1,0,2.255,2.255,2.259,2.259,0,0,0-2.255-2.255" transform="translate(1086.331 -178.399)" fill="#fff"/>
      <path id="패스_16" data-name="패스 16" d="M43.948,11.247l-.676-1.238h-.5v1.238h-.351V8.335h.869c.567,0,.968.211.968.817a.782.782,0,0,1-.627.82l.711,1.275ZM42.773,9.715h.467c.434,0,.674-.183.674-.562s-.239-.518-.674-.518h-.467Z" transform="translate(1087.28 -177.811)" fill="#fff"/>
    </g>
    <line id="선_1" data-name="선 1" x1="82.5" transform="translate(236 56.5)" fill="none" stroke="#fff" stroke-width="1"/>
    <path id="패스_4006" data-name="패스 4006" d="M-128.087-2.839h1.224a29.849,29.849,0,0,0,6.936-.816l-.221-1.02a33.323,33.323,0,0,1-6.613.6v-7.905h-1.326Zm9.877,4.352h1.326V-6.715h2.363V-7.837h-2.363v-5.848h-1.326ZM-113.6-8.976c0,2.465,2.074,3.587,4.182,3.587,2.057,0,4.131-1.122,4.131-3.587s-2.074-3.587-4.131-3.587C-111.528-12.563-113.6-11.441-113.6-8.976Zm-.68,6.052.1,1.139,2.924-.017a30.684,30.684,0,0,0,8.381-1.054V1.53h1.326V-13.685h-1.326v9.86a36.638,36.638,0,0,1-8.687.884Zm2.023-6.052c0-1.615,1.377-2.431,2.839-2.431a2.52,2.52,0,0,1,2.788,2.431,2.54,2.54,0,0,1-2.788,2.431A2.567,2.567,0,0,1-112.259-8.976Zm16.065-.714c0,2.125,1.8,3.485,3.995,3.485,2.176,0,4-1.36,4-3.485,0-2.176-1.819-3.485-4-3.485C-94.392-13.175-96.194-11.849-96.194-9.69Zm1.377,0A2.445,2.445,0,0,1-92.2-12,2.445,2.445,0,0,1-89.581-9.69,2.445,2.445,0,0,1-92.2-7.378,2.445,2.445,0,0,1-94.817-9.69Zm1.19,11.407h10.166V.6H-92.3V-1.156h8.262V-4.9h-9.554v1.122h8.228v1.547h-8.262ZM-85.365-6h1.326v-7.684h-1.326Zm2.873,0,.646,1.139a6.959,6.959,0,0,0,4.1-4.148,5.69,5.69,0,0,0,1.258,1.751A7.81,7.81,0,0,0-73.7-5.7l.459-1.139a6.542,6.542,0,0,1-2.329-1.258,4.3,4.3,0,0,1-1.6-3.043l.017-1.615H-78.48l-.017,1.564A5.736,5.736,0,0,1-82.492-6ZM-79.7-1.224C-79.7.459-78.021,1.8-74.621,1.8s5.066-1.343,5.066-3.026-1.666-3.06-5.066-3.06S-79.7-2.907-79.7-1.224Zm1.309,0c0-1.088,1.292-2.023,3.774-2.023s3.757.918,3.757,2.023c0,1.037-1.275,1.989-3.757,1.989S-78.4-.187-78.4-1.224Zm7.055-3.57h1.326V-8.449h2.176V-9.571h-2.176v-4.114H-71.34Zm3.706-2.6c0,4,1.921,5.168,3.638,5.168,1.615,0,3.417-1.071,3.57-4.658h1.462V1.088h1.292V-13.566h-1.292v5.525h-1.462c-.2-3.485-1.989-4.522-3.57-4.522C-65.713-12.563-67.634-11.39-67.634-7.4Zm1.326,0c0-3.145,1.326-4.08,2.312-4.08.969,0,2.261.935,2.261,4.08,0,3.111-1.292,4.08-2.261,4.08C-64.9-3.315-66.308-4.284-66.308-7.4Zm10.676,8.908h1.292v-15.2h-1.292Zm6.086-14.076v6.494h7.225v-6.494Zm1.326,5.338v-4.182h4.573v4.182ZM-48,.6l.442,1.105c2.482-.493,4.437-1.377,5.338-2.72A5.368,5.368,0,0,0-39.924.833a9.375,9.375,0,0,0,2.7.9l.374-1.105a9.535,9.535,0,0,1-2.363-.8c-.969-.425-2.329-1.241-2.312-2.516v-.357h4.148V-4.165H-47.489v1.122h4.641v.306C-42.882-.969-45.925.357-48,.6Zm8.772-5.916H-37.9V-8.7h2.193V-9.86H-37.9V-13.7h-1.326Zm5.95-7.684v5.151H-23.23V-9.078h-8.721v-3.927Zm-2.295,8.347h14.144V-5.8H-35.572ZM-33.056,1.7h10.251V.612H-31.73V-2.907h-1.326Zm17.17-15.81H-17.45l.323,3.213h.918Zm1.955,1.6v10.3h1.224a39.374,39.374,0,0,0,7.531-.748l-.17-1a42.412,42.412,0,0,1-7.259.6v-3.6h6.086V-8.092h-6.086v-3.3h6.341v-1.122ZM-3.442,1.53h1.326V-13.685H-3.442ZM2-14.11H.434L.757-10.9h.918Zm5.083,1.819v1.122h5.372v3.111H6.962v5.814H8.186a29.551,29.551,0,0,0,7.208-.663l-.17-1.054a31.873,31.873,0,0,1-6.936.493V-7.021h5.491v-5.27Zm9.758,13.8h1.326V-6.8h2.363V-7.922H18.165v-5.763H16.839Zm4.505-8.874c0,3.5,1.972,5.1,4.029,5.1,2.023,0,3.978-1.6,3.978-5.1s-1.955-5.1-3.978-5.1C23.316-12.461,21.344-10.863,21.344-7.361Zm1.292,0c0-2.652,1.343-3.944,2.737-3.944,1.377,0,2.686,1.292,2.686,3.944,0,2.618-1.309,3.944-2.686,3.944C23.979-3.417,22.636-4.743,22.636-7.361ZM32.19,1.513h1.326v-15.2H32.19Zm4.556-14.042v1.139H47.881v-1.139ZM35.233-.153H49.377V-1.309H35.233Zm1.6-4.267H47.8v-1.1H45.331l.34-3.264v-1.377H44.26l-.119,4.641h-3.6l-.119-4.641H39.007v1.377l.34,3.264H36.831Zm15.164-8.908v1.122h8.466V-11h-8.5V-7.48H62.144V-8.6H53.287V-9.945h8.5v-3.383ZM49.853-5.253H64V-6.341H49.853ZM51.876,1.7H62.229V.578H53.2V-.68h8.67V-3.927H51.91v1.122h8.636V-1.7h-8.67ZM69.1-12.121v1.139h4.675c-.255,1.717-2.465,3.111-5.2,3.6l.459,1.139c1.683-.374,4.471-1.309,5.423-3.4a4.8,4.8,0,0,0,2.5,2.261,15.32,15.32,0,0,0,3.077.969l.323-1.139a11.583,11.583,0,0,1-2.907-.884,3.606,3.606,0,0,1-2.346-2.55H79.79v-1.139H75.1v-1.8H73.772v1.8ZM67.363-3.842H73.84V1.615h1.326V-3.842h6.341V-4.964H67.363Zm15.062-7.786v1.139H86.2v.306a5.752,5.752,0,0,1-3.91,5.032L82.952-4A7.2,7.2,0,0,0,86.9-8.007a5.02,5.02,0,0,0,1.139,1.666A7.8,7.8,0,0,0,90.67-4.692L91.18-5.9a6.1,6.1,0,0,1-2.21-1.292,4.555,4.555,0,0,1-1.513-2.89v-.408h3.4v-1.139H87.491v-1.989H86.165v1.989ZM85.349,1.7H95.5V.578H86.675V-3.128H85.349Zm5.236-9.605H93.56V-2.72h1.326V-13.685H93.56v4.641H90.585Zm5.712-3.06v1.122h7.8v-1.122h-3.094v-2.227H99.68v2.227Zm.6,5.78a3.241,3.241,0,0,0,3.519,3.23,3.227,3.227,0,0,0,3.5-3.23,3.221,3.221,0,0,0-3.5-3.247A3.244,3.244,0,0,0,96.892-5.185Zm1.36,0a2.064,2.064,0,0,1,2.159-2.091,2.07,2.07,0,0,1,2.142,2.091,2.056,2.056,0,0,1-2.142,2.074A2.051,2.051,0,0,1,98.252-5.185Zm7.021,6.426H106.6V-6.511h2.125V1.53h1.326V-13.685h-1.326V-7.65H106.6v-5.8h-1.326Zm7.038-13.821v1.122h3.57v.306c0,1.768-2.057,3.264-4.1,3.876l.561,1.071c1.564-.612,3.349-1.5,4.182-3.2a4.362,4.362,0,0,0,1.683,1.938,8.141,8.141,0,0,0,2.244.969l.459-1.105a6.9,6.9,0,0,1-2.091-.833,3.2,3.2,0,0,1-1.615-2.72v-.306h3.264V-12.58Zm-.969,7.565.1,1.156h3.077c.425,0,.867,0,1.343-.017V1.377h1.292V-3.944a32.156,32.156,0,0,0,5.644-.765v2.465h-3.553v1.156H122.8V1.53h1.326V-13.685H122.8v7.922a39.354,39.354,0,0,1-8.755.748Zm15.453,3.927V.51h1.326v-1.6Zm0-6.766.238,4.573h.8l.289-4.573V-12.7h-1.326Z" transform="translate(480 62)" fill="#fff"/>
  </g>
</svg>
