<svg xmlns="http://www.w3.org/2000/svg" width="392.296" height="61.31" viewBox="0 0 392.296 61.31">
  <g id="top01_14" transform="translate(-90 -13.69)">
    <g id="그룹_19" data-name="그룹 19" transform="translate(-941.33 202.493)">
      <path id="패스_1" data-name="패스 1" d="M96.334,26.993H.489a.488.488,0,1,1,0-.975H96.334a.488.488,0,0,1,0,.975" transform="translate(1031.33 -154.487)" fill="#fff"/>
      <path id="패스_2" data-name="패스 2" d="M58.591,11.717H29.141a.488.488,0,1,1,0-.975H58.591a.488.488,0,1,1,0,.975" transform="translate(1069.072 -174.635)" fill="#fff"/>
      <path id="패스_3" data-name="패스 3" d="M25.757,11.717H.486a.488.488,0,0,1,0-.975h25.27a.488.488,0,0,1,0,.975" transform="translate(1031.331 -174.635)" fill="#fff"/>
      <path id="패스_4" data-name="패스 4" d="M33.223,9.552c-2.353,2.877-5.667,5.7-7.966,9.4a12,12,0,0,0-2.044,6.108c-.237,2.2.555,4.459,1.368,6.7.553-2.822,1.133-5.328,2.26-6.932a43.251,43.251,0,0,1,4.283-4.917,42.139,42.139,0,0,0,6.772-8.7,16.09,16.09,0,0,0,1.918-5.832,12.992,12.992,0,0,0-.151-2.943A11.56,11.56,0,0,0,38.607,0c-1.972,2.822-4.554,3.639-7.262,5.07A32.139,32.139,0,0,0,22.2,11.533c-.68.743-1.338,1.582-1.949,2.387a32.6,32.6,0,0,0-1.63,2.824,28.572,28.572,0,0,0-1.071,3.21,26.94,26.94,0,0,0-.32,3.335,12.976,12.976,0,0,0,4.817,9.559c-.9-2.58-1.719-5.277-1.3-8A13.254,13.254,0,0,1,23.7,17.873a27.316,27.316,0,0,1,4.8-4.705c1.642-1.324,3.249-2.469,4.724-3.616" transform="translate(1054.041 -188.803)" fill="#fff"/>
      <path id="패스_5" data-name="패스 5" d="M36.729,10.251c-4.58.955-9.517,4.345-13.784,8.962a95.253,95.253,0,0,0,9.882-4.266c3.7-1.779,6.621-3.2,10.757-3.57a8.578,8.578,0,0,0-5.69-3.709A12.722,12.722,0,0,0,29.9,8.825a15.3,15.3,0,0,0-8.084,9.357c4.51-4.77,10.17-7.861,14.91-7.931" transform="translate(1060.089 -178.983)" fill="#fff"/>
      <path id="패스_6" data-name="패스 6" d="M16.1,12.162c1.045,3.6,3.147,8.124,7.246,11-1.075-2.771-1.746-5.253-2.871-7.889A88.913,88.913,0,0,0,16,6.433c-2.515,2.4-3.63,7.153-1.786,11.44,1.512,3.751,5.021,6.394,8.284,6.561a16.326,16.326,0,0,1-6.4-12.272" transform="translate(1048.867 -180.327)" fill="#fff"/>
      <path id="패스_7" data-name="패스 7" d="M7.147,29.216a6.89,6.89,0,0,1-2.7-.518,6.607,6.607,0,0,1-2.132-1.4,6.228,6.228,0,0,1-1.4-2.067,6.537,6.537,0,0,1-.5-2.552v-.035A6.425,6.425,0,0,1,.92,20.1a6.623,6.623,0,0,1,1.407-2.086A6.521,6.521,0,0,1,4.469,16.6a6.97,6.97,0,0,1,2.713-.518,6.9,6.9,0,0,1,2.7.518,6.773,6.773,0,0,1,2.134,1.4,6.26,6.26,0,0,1,1.4,2.069,6.524,6.524,0,0,1,.5,2.548v.037a6.449,6.449,0,0,1-.506,2.55A6.673,6.673,0,0,1,12,27.286,6.479,6.479,0,0,1,9.859,28.7a6.969,6.969,0,0,1-2.713.518m.035-2.576a3.833,3.833,0,0,0,1.542-.307,3.587,3.587,0,0,0,1.21-.855,4.081,4.081,0,0,0,.778-1.259,4.214,4.214,0,0,0,.281-1.537v-.035a4.266,4.266,0,0,0-.281-1.542,3.809,3.809,0,0,0-2.023-2.132,3.732,3.732,0,0,0-1.542-.318,3.769,3.769,0,0,0-1.551.309,3.531,3.531,0,0,0-1.2.855,4.043,4.043,0,0,0-.78,1.259,4.159,4.159,0,0,0-.281,1.533v.037a4.238,4.238,0,0,0,.281,1.544A3.833,3.833,0,0,0,5.63,26.324a3.713,3.713,0,0,0,1.551.316" transform="translate(1031.878 -167.609)" fill="#fff"/>
      <path id="패스_8" data-name="패스 8" d="M6.492,20.873q1.916-.2,1.772-1.8H7.145v-2.9h2.924v2.448A3.356,3.356,0,0,1,9.2,21.21a3.609,3.609,0,0,1-2.471.806Z" transform="translate(1039.915 -167.474)" fill="#fff"/>
      <path id="패스_9" data-name="패스 9" d="M14.178,18.75H10.313V16.174H20.836V18.75H16.971V28.876H14.178Z" transform="translate(1044.929 -167.484)" fill="#fff"/>
      <path id="패스_10" data-name="패스 10" d="M15.375,16.174h2.8V21.2h5.151V16.174h2.8v12.7h-2.8v-5.1H18.171v5.1h-2.8Z" transform="translate(1051.604 -167.484)" fill="#fff"/>
      <path id="패스_11" data-name="패스 11" d="M25.9,16.135h2.576l5.441,12.792H31L29.837,26.08H24.467L23.3,28.927h-2.85Zm2.938,7.476-1.688-4.12-1.688,4.12Z" transform="translate(1058.298 -167.536)" fill="#fff"/>
      <path id="패스_12" data-name="패스 12" d="M26.7,16.174h2.578l5.95,7.82v-7.82h2.759v12.7H35.615L29.463,20.8v8.075H26.7Z" transform="translate(1066.542 -167.484)" fill="#fff"/>
      <path id="패스_13" data-name="패스 13" d="M32.486,16.174h2.8v5.553l5.151-5.553h3.379l-5.174,5.39,5.407,7.311H40.689L36.75,23.469,35.282,24.99v3.885h-2.8Z" transform="translate(1074.141 -167.484)" fill="#fff"/>
      <path id="패스_14" data-name="패스 14" d="M42.821,29.161a8.437,8.437,0,0,1-2.85-.5,7.516,7.516,0,0,1-2.538-1.533l1.651-1.979a8.289,8.289,0,0,0,1.786,1.126,4.772,4.772,0,0,0,2,.416,2.44,2.44,0,0,0,1.352-.316,1,1,0,0,0,.483-.88v-.037a1.125,1.125,0,0,0-.1-.481,1.015,1.015,0,0,0-.383-.39,3.992,3.992,0,0,0-.783-.362c-.334-.121-.769-.249-1.3-.381a15.97,15.97,0,0,1-1.749-.527,4.929,4.929,0,0,1-1.328-.718,2.889,2.889,0,0,1-.845-1.061,3.679,3.679,0,0,1-.3-1.577v-.037a3.685,3.685,0,0,1,.325-1.57,3.616,3.616,0,0,1,.91-1.208,4.123,4.123,0,0,1,1.4-.778A5.627,5.627,0,0,1,42.35,16.1a7.368,7.368,0,0,1,4.717,1.616l-1.449,2.1a9.3,9.3,0,0,0-1.672-.915,4.23,4.23,0,0,0-1.633-.337,1.992,1.992,0,0,0-1.224.316.972.972,0,0,0-.409.792v.037a1.14,1.14,0,0,0,.118.534,1.045,1.045,0,0,0,.43.406,3.835,3.835,0,0,0,.845.346q.533.164,1.356.381a12.823,12.823,0,0,1,1.719.574,4.751,4.751,0,0,1,1.273.759,2.889,2.889,0,0,1,.78,1.045,3.524,3.524,0,0,1,.265,1.433v.037a3.933,3.933,0,0,1-.341,1.677,3.464,3.464,0,0,1-.957,1.236A4.25,4.25,0,0,1,44.7,28.9a6.3,6.3,0,0,1-1.883.265" transform="translate(1080.683 -167.589)" fill="#fff"/>
      <path id="패스_15" data-name="패스 15" d="M44.189,12.865a2.487,2.487,0,1,1,2.485-2.487,2.488,2.488,0,0,1-2.485,2.487m0-4.742a2.255,2.255,0,1,0,2.255,2.255,2.259,2.259,0,0,0-2.255-2.255" transform="translate(1086.331 -178.399)" fill="#fff"/>
      <path id="패스_16" data-name="패스 16" d="M43.948,11.247l-.676-1.238h-.5v1.238h-.351V8.335h.869c.567,0,.968.211.968.817a.782.782,0,0,1-.627.82l.711,1.275ZM42.773,9.715h.467c.434,0,.674-.183.674-.562s-.239-.518-.674-.518h-.467Z" transform="translate(1087.28 -177.811)" fill="#fff"/>
    </g>
    <line id="선_1" data-name="선 1" x1="82.5" transform="translate(228 56.5)" fill="none" stroke="#fff" stroke-width="1"/>
    <path id="패스_4007" data-name="패스 4007" d="M-101.088-2.672h1.152a28.093,28.093,0,0,0,6.528-.768l-.208-.96a31.363,31.363,0,0,1-6.224.56v-7.44h-1.248Zm9.3,4.1h1.248V-6.32h2.224V-7.376h-2.224v-5.5h-1.248Zm4.336-9.872c0,2.32,1.952,3.376,3.936,3.376,1.936,0,3.888-1.056,3.888-3.376s-1.952-3.376-3.888-3.376C-85.5-11.824-87.456-10.768-87.456-8.448Zm-.64,5.7L-88-1.68l2.752-.016a28.879,28.879,0,0,0,7.888-.992V1.44h1.248V-12.88H-77.36V-3.6a34.483,34.483,0,0,1-8.176.832Zm1.9-5.7a2.4,2.4,0,0,1,2.672-2.288A2.372,2.372,0,0,1-80.9-8.448,2.391,2.391,0,0,1-83.52-6.16,2.416,2.416,0,0,1-86.192-8.448Zm15.12-.672c0,2,1.7,3.28,3.76,3.28,2.048,0,3.76-1.28,3.76-3.28,0-2.048-1.712-3.28-3.76-3.28C-69.376-12.4-71.072-11.152-71.072-9.12Zm1.3,0A2.3,2.3,0,0,1-67.312-11.3,2.3,2.3,0,0,1-64.848-9.12a2.3,2.3,0,0,1-2.464,2.176A2.3,2.3,0,0,1-69.776-9.12Zm1.12,10.736h9.568V.56h-8.32V-1.088h7.776v-3.52h-8.992v1.056h7.744V-2.1h-7.776Zm7.776-7.264h1.248V-12.88H-60.88Zm2.7,0,.608,1.072a6.55,6.55,0,0,0,3.856-3.9,5.355,5.355,0,0,0,1.184,1.648A7.351,7.351,0,0,0-49.9-5.36l.432-1.072a6.157,6.157,0,0,1-2.192-1.184,4.042,4.042,0,0,1-1.5-2.864l.016-1.52H-54.4l-.016,1.472A5.4,5.4,0,0,1-58.176-5.648Zm2.624,4.5c0,1.584,1.584,2.848,4.784,2.848S-46,.432-46-1.152s-1.568-2.88-4.768-2.88S-55.552-2.736-55.552-1.152Zm1.232,0c0-1.024,1.216-1.9,3.552-1.9s3.536.864,3.536,1.9c0,.976-1.2,1.872-3.536,1.872S-54.32-.176-54.32-1.152Zm6.64-3.36h1.248v-3.44h2.048V-9.008h-2.048V-12.88H-47.68Zm3.488-2.448c0,3.76,1.808,4.864,3.424,4.864,1.52,0,3.216-1.008,3.36-4.384h1.376v7.5h1.216V-12.768h-1.216v5.2h-1.376c-.192-3.28-1.872-4.256-3.36-4.256C-42.384-11.824-44.192-10.72-44.192-6.96Zm1.248,0c0-2.96,1.248-3.84,2.176-3.84.912,0,2.128.88,2.128,3.84,0,2.928-1.216,3.84-2.128,3.84C-41.616-3.12-42.944-4.032-42.944-6.96ZM-32.9,1.424h1.216v-14.3H-32.9Zm5.728-13.248v6.112h6.8v-6.112ZM-25.92-6.8v-3.936h4.3V-6.8Zm.208,7.36L-25.3,1.6C-22.96,1.136-21.12.3-20.272-.96A5.052,5.052,0,0,0-18.112.784a8.823,8.823,0,0,0,2.544.848l.352-1.04A8.974,8.974,0,0,1-17.44-.16c-.912-.4-2.192-1.168-2.176-2.368v-.336h3.9V-3.92h-9.52v1.056h4.368v.288C-20.9-.912-23.76.336-25.712.56Zm8.256-5.568h1.248V-8.192h2.064V-9.28h-2.064V-12.9h-1.248Zm5.6-7.232v4.848H-2.4V-8.544h-8.208v-3.7Zm-2.16,7.856H-.7V-5.456H-14.016ZM-11.648,1.6H-2V.576h-8.4V-2.736h-1.248ZM-137.136,6.72h-1.472l.3,3.024h.864Zm1.84,1.5v9.7h1.152a37.057,37.057,0,0,0,7.088-.7l-.16-.944a39.917,39.917,0,0,1-6.832.56V13.44h5.728V12.384h-5.728V9.28h5.968V8.224Zm9.872,13.216h1.248V7.12h-1.248Zm5.12-14.72h-1.472l.3,3.024h.864Zm4.784,1.712V9.488h5.056v2.928h-5.168v5.472h1.152a27.813,27.813,0,0,0,6.784-.624l-.16-.992a30,30,0,0,1-6.528.464V13.392h5.168V8.432Zm9.184,12.992h1.248V13.6h2.224V12.544h-2.224V7.12h-1.248Zm4.24-8.352c0,3.3,1.856,4.8,3.792,4.8,1.9,0,3.744-1.5,3.744-4.8s-1.84-4.8-3.744-4.8C-100.24,8.272-102.1,9.776-102.1,13.072Zm1.216,0c0-2.5,1.264-3.712,2.576-3.712,1.3,0,2.528,1.216,2.528,3.712,0,2.464-1.232,3.712-2.528,3.712C-99.616,16.784-100.88,15.536-100.88,13.072Zm8.992,8.352h1.248V7.12h-1.248ZM-87.6,8.208V9.28h10.48V8.208Zm-1.424,11.648h13.312V18.768H-89.024Zm1.5-4.016H-77.2V14.8h-2.32l.32-3.072v-1.3h-1.328L-80.64,14.8h-3.392l-.112-4.368h-1.328v1.3l.32,3.072H-87.52Zm14.272-8.384V8.512h7.968V9.648h-8V12.96H-63.7V11.9h-8.336V10.64h8V7.456Zm-2.016,7.6h13.312V14.032H-75.264Zm1.9,6.544h9.744V20.544h-8.5V19.36h8.16V16.3h-9.376V17.36H-65.2V18.4h-8.16ZM-57.152,8.592V9.664h4.4c-.24,1.616-2.32,2.928-4.9,3.392l.432,1.072c1.584-.352,4.208-1.232,5.1-3.2a4.514,4.514,0,0,0,2.352,2.128,14.418,14.418,0,0,0,2.9.912l.3-1.072a10.9,10.9,0,0,1-2.736-.832,3.394,3.394,0,0,1-2.208-2.4h4.416V8.592H-51.5V6.9h-1.248v1.7Zm-1.632,7.792h6.1V21.52h1.248V16.384h5.968V15.328H-58.784Zm14.176-7.328v1.072h3.552v.288a5.413,5.413,0,0,1-3.68,4.736l.624,1.088A6.776,6.776,0,0,0-40.4,12.464a4.724,4.724,0,0,0,1.072,1.568,7.341,7.341,0,0,0,2.48,1.552l.48-1.136a5.744,5.744,0,0,1-2.08-1.216,4.287,4.287,0,0,1-1.424-2.72v-.384h3.2V9.056H-39.84V7.184h-1.248V9.056ZM-41.856,21.6H-32.3V20.544h-8.3V17.056h-1.248Zm4.928-9.04h2.8v4.88h1.248V7.12h-1.248v4.368h-2.8Zm5.376-2.88v1.056h7.344V9.68H-27.12v-2.1h-1.248v2.1Zm.56,5.44a3.05,3.05,0,0,0,3.312,3.04,3.037,3.037,0,0,0,3.3-3.04,3.031,3.031,0,0,0-3.3-3.056A3.053,3.053,0,0,0-30.992,15.12Zm1.28,0a1.943,1.943,0,0,1,2.032-1.968,1.948,1.948,0,0,1,2.016,1.968,1.935,1.935,0,0,1-2.016,1.952A1.93,1.93,0,0,1-29.712,15.12Zm6.608,6.048h1.248v-7.3h2V21.44h1.248V7.12h-1.248V12.8h-2V7.344H-23.1ZM-16.48,8.16V9.216h3.36V9.5c0,1.664-1.936,3.072-3.856,3.648l.528,1.008a6.873,6.873,0,0,0,3.936-3.008,4.105,4.105,0,0,0,1.584,1.824,7.662,7.662,0,0,0,2.112.912l.432-1.04a6.5,6.5,0,0,1-1.968-.784,3.015,3.015,0,0,1-1.52-2.56V9.216H-8.8V8.16Zm-.912,7.12.1,1.088h2.9c.4,0,.816,0,1.264-.016V21.3h1.216V16.288a30.264,30.264,0,0,0,5.312-.72v2.32H-9.952v1.088h3.344V21.44H-5.36V7.12H-6.608v7.456a37.039,37.039,0,0,1-8.24.7Zm14.544,3.7v1.5H-1.6v-1.5Zm0-6.368.224,4.3h.752l.272-4.3V8.048H-2.848Z" transform="translate(483 50)" fill="#fff"/>
  </g>
</svg>
