<svg xmlns="http://www.w3.org/2000/svg" width="337.384" height="49.922" viewBox="0 0 337.384 49.922">
  <g id="top01_15" transform="translate(-90 -25.078)">
    <g id="그룹_19" data-name="그룹 19" transform="translate(90 25.078)">
      <path id="패스_1" data-name="패스 1" d="M78.44,26.812H.4a.4.4,0,1,1,0-.794H78.44a.4.4,0,0,1,0,.794" transform="translate(0 23.11)" fill="#fff"/>
      <path id="패스_2" data-name="패스 2" d="M53.03,11.536H29.05a.4.4,0,1,1,0-.794H53.03a.4.4,0,1,1,0,.794" transform="translate(25.409 9.541)" fill="#fff"/>
      <path id="패스_3" data-name="패스 3" d="M20.973,11.536H.4a.4.4,0,0,1,0-.794H20.973a.4.4,0,0,1,0,.794" transform="translate(0.001 9.541)" fill="#fff"/>
      <path id="패스_4" data-name="패스 4" d="M30.253,7.778c-1.916,2.343-4.614,4.641-6.486,7.657A9.767,9.767,0,0,0,22.1,20.408a12.594,12.594,0,0,0,1.114,5.456,15.627,15.627,0,0,1,1.84-5.645,35.217,35.217,0,0,1,3.487-4,34.312,34.312,0,0,0,5.514-7.088A13.1,13.1,0,0,0,35.62,4.38a10.578,10.578,0,0,0-.123-2.4A9.413,9.413,0,0,0,34.636,0c-1.605,2.3-3.708,2.963-5.913,4.128a26.169,26.169,0,0,0-7.445,5.263c-.554.605-1.089,1.288-1.587,1.944a26.547,26.547,0,0,0-1.328,2.3,23.265,23.265,0,0,0-.872,2.613,21.936,21.936,0,0,0-.261,2.716,10.565,10.565,0,0,0,3.922,7.784A13.607,13.607,0,0,1,20.1,20.234a10.792,10.792,0,0,1,2.4-5.681,22.242,22.242,0,0,1,3.911-3.831c1.337-1.078,2.646-2.01,3.846-2.944" transform="translate(15.292 0)" fill="#fff"/>
      <path id="패스_5" data-name="패스 5" d="M33.96,9.731c-3.729.777-7.749,3.538-11.223,7.3a77.56,77.56,0,0,0,8.046-3.474c3.012-1.449,5.391-2.606,8.759-2.907a6.985,6.985,0,0,0-4.633-3.02A10.359,10.359,0,0,0,28.4,8.57a12.46,12.46,0,0,0-6.583,7.619C25.491,12.3,30.1,9.788,33.96,9.731" transform="translate(19.365 6.612)" fill="#fff"/>
      <path id="패스_6" data-name="패스 6" d="M15.583,11.1a16.372,16.372,0,0,0,5.9,8.958c-.876-2.256-1.422-4.278-2.337-6.424a72.4,72.4,0,0,0-3.646-7.2c-2.048,1.957-2.956,5.824-1.454,9.315,1.231,3.054,4.088,5.206,6.745,5.342A13.294,13.294,0,0,1,15.583,11.1" transform="translate(11.81 5.707)" fill="#fff"/>
      <path id="패스_7" data-name="패스 7" d="M5.9,26.776a5.61,5.61,0,0,1-2.2-.422,5.38,5.38,0,0,1-1.736-1.137,5.071,5.071,0,0,1-1.14-1.683,5.323,5.323,0,0,1-.4-2.078v-.028a5.231,5.231,0,0,1,.412-2.076,5.393,5.393,0,0,1,1.146-1.7A5.31,5.31,0,0,1,3.716,16.5a5.675,5.675,0,0,1,2.209-.422,5.617,5.617,0,0,1,2.2.422,5.515,5.515,0,0,1,1.738,1.137A5.1,5.1,0,0,1,11,19.323a5.312,5.312,0,0,1,.407,2.074v.03a5.251,5.251,0,0,1-.412,2.076,5.433,5.433,0,0,1-1.146,1.7A5.276,5.276,0,0,1,8.1,26.354a5.675,5.675,0,0,1-2.209.422m.028-2.1a3.121,3.121,0,0,0,1.256-.25,2.92,2.92,0,0,0,.985-.7A3.323,3.323,0,0,0,8.8,22.708a3.431,3.431,0,0,0,.229-1.252v-.028A3.474,3.474,0,0,0,8.8,20.172a3.1,3.1,0,0,0-1.647-1.736A3.039,3.039,0,0,0,5.9,18.177a3.069,3.069,0,0,0-1.263.252,2.875,2.875,0,0,0-.976.7,3.292,3.292,0,0,0-.635,1.025A3.386,3.386,0,0,0,2.793,21.4v.03a3.451,3.451,0,0,0,.229,1.258,3.121,3.121,0,0,0,1.64,1.736,3.023,3.023,0,0,0,1.263.257" transform="translate(0.369 14.271)" fill="#fff"/>
      <path id="패스_8" data-name="패스 8" d="M6.492,20q1.56-.162,1.443-1.462H7.023V16.175H9.4v1.993A2.732,2.732,0,0,1,8.7,20.275a2.939,2.939,0,0,1-2.012.656Z" transform="translate(5.785 14.363)" fill="#fff"/>
      <path id="패스_9" data-name="패스 9" d="M13.46,18.271H10.313v-2.1h8.568v2.1H15.735v8.245H13.46Z" transform="translate(9.157 14.355)" fill="#fff"/>
      <path id="패스_10" data-name="패스 10" d="M15.375,16.174h2.277v4.092h4.194V16.174h2.277V26.516H21.846V22.364H17.652v4.153H15.375Z" transform="translate(13.652 14.355)" fill="#fff"/>
      <path id="패스_11" data-name="패스 11" d="M24.889,16.135h2.1l4.431,10.416H29.039l-.946-2.318H23.722l-.947,2.318h-2.32Zm2.392,6.087-1.375-3.355-1.375,3.355Z" transform="translate(18.16 14.32)" fill="#fff"/>
      <path id="패스_12" data-name="패스 12" d="M26.7,16.174h2.1l4.845,6.367V16.174h2.247V26.516H33.96l-5.009-6.575v6.575H26.7Z" transform="translate(23.711 14.355)" fill="#fff"/>
      <path id="패스_13" data-name="패스 13" d="M32.486,16.174h2.277V20.7l4.194-4.521h2.751L37.5,20.563l4.4,5.953H39.165l-3.207-4.4-1.2,1.239v3.164H32.486Z" transform="translate(28.825 14.355)" fill="#fff"/>
      <path id="패스_14" data-name="패스 14" d="M41.82,26.734a6.87,6.87,0,0,1-2.32-.407,6.12,6.12,0,0,1-2.067-1.248l1.345-1.611a6.749,6.749,0,0,0,1.454.917,3.886,3.886,0,0,0,1.632.338,1.986,1.986,0,0,0,1.1-.257.817.817,0,0,0,.393-.717v-.03a.916.916,0,0,0-.081-.391.826.826,0,0,0-.312-.318,3.25,3.25,0,0,0-.637-.3c-.272-.1-.626-.2-1.057-.31a13,13,0,0,1-1.424-.429,4.013,4.013,0,0,1-1.082-.584,2.352,2.352,0,0,1-.688-.864,3,3,0,0,1-.246-1.284v-.03a3,3,0,0,1,.265-1.278,2.944,2.944,0,0,1,.741-.983,3.357,3.357,0,0,1,1.14-.634,4.582,4.582,0,0,1,1.46-.223,6,6,0,0,1,3.841,1.316L44.1,19.124a7.574,7.574,0,0,0-1.362-.745,3.444,3.444,0,0,0-1.329-.274,1.622,1.622,0,0,0-1,.257.791.791,0,0,0-.333.645v.03a.928.928,0,0,0,.1.435.851.851,0,0,0,.35.331,3.123,3.123,0,0,0,.688.282q.434.133,1.1.31a10.441,10.441,0,0,1,1.4.467,3.869,3.869,0,0,1,1.036.618,2.352,2.352,0,0,1,.635.851A2.869,2.869,0,0,1,45.6,23.5v.03a3.2,3.2,0,0,1-.278,1.365,2.82,2.82,0,0,1-.779,1.006,3.461,3.461,0,0,1-1.191.618,5.129,5.129,0,0,1-1.534.216" transform="translate(33.233 14.285)" fill="#fff"/>
      <path id="패스_15" data-name="패스 15" d="M43.727,11.941a2.025,2.025,0,1,1,2.023-2.025,2.026,2.026,0,0,1-2.023,2.025m0-3.862a1.836,1.836,0,1,0,1.836,1.836,1.839,1.839,0,0,0-1.836-1.836" transform="translate(37.038 7.007)" fill="#fff"/>
      <path id="패스_16" data-name="패스 16" d="M43.664,10.706,43.114,9.7h-.407v1.008h-.286V8.335h.707c.461,0,.789.172.789.666a.637.637,0,0,1-.511.668l.579,1.038Zm-.957-1.248h.38c.354,0,.548-.149.548-.458s-.195-.422-.548-.422h-.38Z" transform="translate(37.678 7.403)" fill="#fff"/>
    </g>
    <line id="선_1" data-name="선 1" x1="85.767" transform="translate(196.818 58.886)" fill="none" stroke="#fff" stroke-width="1"/>
    <path id="패스_4008" data-name="패스 4008" d="M-88.452-2.338h1.008a24.582,24.582,0,0,0,5.712-.672l-.182-.84a27.442,27.442,0,0,1-5.446.49V-9.87h-1.092Zm8.134,3.584h1.092V-5.53h1.946v-.924h-1.946V-11.27h-1.092Zm3.794-8.638c0,2.03,1.708,2.954,3.444,2.954,1.694,0,3.4-.924,3.4-2.954s-1.708-2.954-3.4-2.954C-74.816-10.346-76.524-9.422-76.524-7.392Zm-.56,4.984L-77-1.47l2.408-.014a25.269,25.269,0,0,0,6.9-.868V1.26H-66.6V-11.27H-67.69v8.12a30.172,30.172,0,0,1-7.154.728Zm1.666-4.984a2.1,2.1,0,0,1,2.338-2,2.075,2.075,0,0,1,2.3,2,2.092,2.092,0,0,1-2.3,2A2.114,2.114,0,0,1-75.418-7.392Zm13.23-.588A3,3,0,0,0-58.9-5.11a3.011,3.011,0,0,0,3.29-2.87c0-1.792-1.5-2.87-3.29-2.87S-62.188-9.758-62.188-7.98Zm1.134,0a2.014,2.014,0,0,1,2.156-1.9,2.014,2.014,0,0,1,2.156,1.9,2.014,2.014,0,0,1-2.156,1.9A2.014,2.014,0,0,1-61.054-7.98Zm.98,9.394H-51.7V.49h-7.28V-.952h6.8v-3.08h-7.868v.924h6.776v1.274h-6.8Zm6.8-6.356h1.092V-11.27H-53.27Zm2.366,0,.532.938A5.731,5.731,0,0,0-47-7.42a4.686,4.686,0,0,0,1.036,1.442,6.432,6.432,0,0,0,2.3,1.288l.378-.938a5.387,5.387,0,0,1-1.918-1.036A3.537,3.537,0,0,1-46.522-9.17l.014-1.33H-47.6l-.014,1.288A4.723,4.723,0,0,1-50.9-4.942Zm2.3,3.934c0,1.386,1.386,2.492,4.186,2.492S-40.25.378-40.25-1.008s-1.372-2.52-4.172-2.52S-48.608-2.394-48.608-1.008Zm1.078,0c0-.9,1.064-1.666,3.108-1.666s3.094.756,3.094,1.666c0,.854-1.05,1.638-3.094,1.638S-47.53-.154-47.53-1.008Zm5.81-2.94h1.092v-3.01h1.792v-.924h-1.792V-11.27H-41.72Zm3.052-2.142c0,3.29,1.582,4.256,3,4.256,1.33,0,2.814-.882,2.94-3.836h1.2V.9h1.064V-11.172h-1.064v4.55h-1.2c-.168-2.87-1.638-3.724-2.94-3.724C-37.086-10.346-38.668-9.38-38.668-6.09Zm1.092,0c0-2.59,1.092-3.36,1.9-3.36s1.862.77,1.862,3.36c0,2.562-1.064,3.36-1.862,3.36C-36.414-2.73-37.576-3.528-37.576-6.09Zm8.792,7.336h1.064V-11.27h-1.064Zm5.012-11.592V-5h5.95v-5.348Zm1.092,4.4V-9.394h3.766V-5.95ZM-22.5.49l.364.91C-20.09.994-18.48.266-17.738-.84A4.421,4.421,0,0,0-15.848.686a7.72,7.72,0,0,0,2.226.742l.308-.91A7.852,7.852,0,0,1-15.26-.14c-.8-.35-1.918-1.022-1.9-2.072v-.294h3.416V-3.43h-8.33v.924h3.822v.252C-18.284-.8-20.79.294-22.5.49Zm7.224-4.872h1.092V-7.168h1.806V-8.12h-1.806v-3.164h-1.092Zm4.9-6.328v4.242H-2.1V-7.476H-9.282V-10.71Zm-1.89,6.874H-.616v-.938H-12.264ZM-10.192,1.4H-1.75V.5H-9.1v-2.9h-1.092Zm-109.8,4.98h-1.288l.266,2.646h.756Zm1.61,1.316V16.18h1.008a32.425,32.425,0,0,0,6.2-.616l-.14-.826a34.928,34.928,0,0,1-5.978.49V12.26h5.012v-.924h-5.012V8.62h5.222V7.7Zm8.638,11.564h1.092V6.73h-1.092Zm4.48-12.88h-1.288l.266,2.646h.756Zm4.186,1.5V8.8h4.424v2.562h-4.522v4.788h1.008a24.337,24.337,0,0,0,5.936-.546l-.14-.868a26.248,26.248,0,0,1-5.712.406V12.218h4.522V7.878Zm8.036,11.368h1.092V12.4h1.946v-.924h-1.946V6.73h-1.092Zm3.71-7.308c0,2.884,1.624,4.2,3.318,4.2,1.666,0,3.276-1.316,3.276-4.2s-1.61-4.2-3.276-4.2C-87.71,7.738-89.334,9.054-89.334,11.938Zm1.064,0c0-2.184,1.106-3.248,2.254-3.248S-83.8,9.754-83.8,11.938c0,2.156-1.078,3.248-2.212,3.248S-88.27,14.094-88.27,11.938Zm7.868,7.308h1.092V6.73H-80.4ZM-76.65,7.682V8.62h9.17V7.682ZM-77.9,17.874h11.648v-.952H-77.9Zm1.316-3.514h9.03v-.91h-2.03l.28-2.688V9.628h-1.162l-.1,3.822h-2.968l-.1-3.822h-1.162v1.134l.28,2.688H-76.58Zm12.488-7.336v.924h6.972v.994h-7v2.9h8.386v-.924h-7.294V9.81h7V7.024Zm-1.764,6.65h11.648v-.9H-65.856ZM-64.19,19.4h8.526v-.924H-63.1V17.44h7.14V14.766h-8.2v.924h7.112v.91h-7.14ZM-50.008,8.018v.938h3.85c-.21,1.414-2.03,2.562-4.284,2.968l.378.938c1.386-.308,3.682-1.078,4.466-2.8a3.95,3.95,0,0,0,2.058,1.862,12.616,12.616,0,0,0,2.534.8l.266-.938a9.539,9.539,0,0,1-2.394-.728,2.97,2.97,0,0,1-1.932-2.1H-41.2V8.018h-3.864V6.534h-1.092V8.018Zm-1.428,6.818H-46.1V19.33h1.092V14.836h5.222v-.924H-51.436Zm12.4-6.412v.938h3.108v.252a4.737,4.737,0,0,1-3.22,4.144l.546.952a5.929,5.929,0,0,0,3.248-3.3,4.134,4.134,0,0,0,.938,1.372,6.424,6.424,0,0,0,2.17,1.358l.42-.994a5.026,5.026,0,0,1-1.82-1.064A3.751,3.751,0,0,1-34.888,9.7V9.362h2.8V8.424H-34.86V6.786h-1.092V8.424ZM-36.624,19.4h8.358v-.924h-7.266V15.424h-1.092Zm4.312-7.91h2.45v4.27h1.092V6.73h-1.092v3.822h-2.45Zm4.7-2.52v.924h6.426V8.97H-23.73V7.136h-1.092V8.97Zm.49,4.76a2.669,2.669,0,0,0,2.9,2.66,2.657,2.657,0,0,0,2.884-2.66,2.652,2.652,0,0,0-2.884-2.674A2.672,2.672,0,0,0-27.118,13.73Zm1.12,0a1.7,1.7,0,0,1,1.778-1.722,1.7,1.7,0,0,1,1.764,1.722,1.693,1.693,0,0,1-1.764,1.708A1.689,1.689,0,0,1-26,13.73Zm5.782,5.292h1.092V12.638h1.75V19.26h1.092V6.73h-1.092V11.7h-1.75V6.926h-1.092Zm5.8-11.382v.924h2.94v.252c0,1.456-1.694,2.688-3.374,3.192l.462.882a6.014,6.014,0,0,0,3.444-2.632,3.592,3.592,0,0,0,1.386,1.6,6.7,6.7,0,0,0,1.848.8l.378-.91a5.685,5.685,0,0,1-1.722-.686,2.638,2.638,0,0,1-1.33-2.24V8.564H-7.7V7.64Zm-.8,6.23.084.952H-12.6c.35,0,.714,0,1.106-.014v4.326h1.064V14.752a26.481,26.481,0,0,0,4.648-.63v2.03H-8.708V17.1h2.926V19.26H-4.69V6.73H-5.782v6.524a32.409,32.409,0,0,1-7.21.616ZM-2.492,17.1V18.42H-1.4V17.1Zm0-5.572.2,3.766h.658l.238-3.766V7.542H-2.492Z" transform="translate(428 52)" fill="#fff"/>
  </g>
</svg>
