<svg xmlns="http://www.w3.org/2000/svg" width="1220" height="80" viewBox="0 0 1220 80">
  <g id="그룹_122" data-name="그룹 122" transform="translate(-90 -5)">
    <g id="그룹_19" data-name="그룹 19" transform="translate(-941.33 193.803)">
      <path id="패스_1" data-name="패스 1" d="M125.7,27.291H.638a.636.636,0,1,1,0-1.273H125.7a.636.636,0,0,1,0,1.273" transform="translate(1031.33 -136.094)" fill="#007482"/>
      <path id="패스_2" data-name="패스 2" d="M67.718,12.015H29.289a.636.636,0,1,1,0-1.273H67.718a.636.636,0,1,1,0,1.273" transform="translate(1089.312 -167.042)" fill="#007482"/>
      <path id="패스_3" data-name="패스 3" d="M33.608,12.015H.634a.636.636,0,0,1,0-1.273H33.608a.636.636,0,0,1,0,1.273" transform="translate(1031.332 -167.042)" fill="#007482"/>
      <path id="패스_4" data-name="패스 4" d="M38.1,12.464C35.029,16.219,30.7,19.9,27.7,24.734a15.652,15.652,0,0,0-2.667,7.97c-.309,2.867.724,5.818,1.785,8.743.721-3.682,1.479-6.952,2.949-9.046a56.435,56.435,0,0,1,5.588-6.415A54.985,54.985,0,0,0,44.2,14.628a20.994,20.994,0,0,0,2.5-7.609,16.952,16.952,0,0,0-.2-3.84A15.084,15.084,0,0,0,45.123,0C42.55,3.682,39.18,4.749,35.647,6.615a41.936,41.936,0,0,0-11.931,8.434c-.888.97-1.746,2.064-2.543,3.115a42.543,42.543,0,0,0-2.127,3.685,37.281,37.281,0,0,0-1.4,4.188,35.152,35.152,0,0,0-.418,4.352,16.931,16.931,0,0,0,6.285,12.473c-1.176-3.367-2.242-6.885-1.691-10.437a17.3,17.3,0,0,1,3.843-9.1,35.643,35.643,0,0,1,6.267-6.14c2.142-1.727,4.24-3.221,6.164-4.718" transform="translate(1066.217 -188.803)" fill="#007482"/>
      <path id="패스_5" data-name="패스 5" d="M41.274,11.106C35.3,12.351,28.856,16.775,23.289,22.8a124.29,124.29,0,0,0,12.894-5.567c4.827-2.321,8.64-4.176,14.037-4.658A11.194,11.194,0,0,0,42.8,7.736,16.6,16.6,0,0,0,32.368,9.245,19.967,19.967,0,0,0,21.819,21.454C27.7,15.23,35.089,11.2,41.274,11.106" transform="translate(1075.508 -173.719)" fill="#007482"/>
      <path id="패스_6" data-name="패스 6" d="M16.959,13.909c1.364,4.7,4.106,10.6,9.455,14.355-1.4-3.615-2.279-6.855-3.746-10.294A116.017,116.017,0,0,0,16.825,6.433c-3.282,3.136-4.737,9.334-2.33,14.928,1.973,4.894,6.552,8.343,10.809,8.561a21.3,21.3,0,0,1-8.346-16.013" transform="translate(1058.268 -175.782)" fill="#007482"/>
      <path id="패스_7" data-name="패스 7" d="M9.2,33.22a8.991,8.991,0,0,1-3.527-.676A8.621,8.621,0,0,1,2.89,30.723a8.126,8.126,0,0,1-1.827-2.7A8.53,8.53,0,0,1,.414,24.7V24.65a8.383,8.383,0,0,1,.661-3.327A8.642,8.642,0,0,1,2.911,18.6a8.509,8.509,0,0,1,2.794-1.846,9.094,9.094,0,0,1,3.54-.676,9,9,0,0,1,3.527.676,8.837,8.837,0,0,1,2.785,1.821,8.168,8.168,0,0,1,1.821,2.7A8.513,8.513,0,0,1,18.03,24.6v.048a8.415,8.415,0,0,1-.661,3.327A8.707,8.707,0,0,1,15.533,30.7a8.454,8.454,0,0,1-2.794,1.842,9.094,9.094,0,0,1-3.54.676m.045-3.361a5,5,0,0,0,2.012-.4,4.68,4.68,0,0,0,1.579-1.115A5.325,5.325,0,0,0,13.851,26.7a5.5,5.5,0,0,0,.367-2.006V24.65a5.566,5.566,0,0,0-.367-2.012,4.971,4.971,0,0,0-2.639-2.782A4.87,4.87,0,0,0,9.2,19.441a4.918,4.918,0,0,0-2.024.4,4.607,4.607,0,0,0-1.564,1.115A5.276,5.276,0,0,0,4.593,22.6a5.427,5.427,0,0,0-.367,2v.048a5.53,5.53,0,0,0,.367,2.015A5,5,0,0,0,7.22,29.447a4.845,4.845,0,0,0,2.024.412" transform="translate(1032.171 -156.246)" fill="#007482"/>
      <path id="패스_8" data-name="패스 8" d="M6.492,22.306q2.5-.259,2.312-2.342H7.344V16.175h3.815v3.194a4.379,4.379,0,0,1-1.133,3.376A4.709,4.709,0,0,1,6.8,23.8Z" transform="translate(1044.511 -156.041)" fill="#007482"/>
      <path id="패스_9" data-name="패스 9" d="M15.356,19.535H10.313V16.174H24.044v3.361H19V32.748H15.356Z" transform="translate(1052.218 -156.054)" fill="#007482"/>
      <path id="패스_10" data-name="패스 10" d="M15.375,16.174h3.649v6.558h6.721V16.174h3.649V32.748H25.745V26.093H19.024v6.655H15.375Z" transform="translate(1062.471 -156.054)" fill="#007482"/>
      <path id="패스_11" data-name="패스 11" d="M27.56,16.135h3.361l7.1,16.691H34.212L32.7,29.111H25.691l-1.518,3.715H20.454Zm3.833,9.755-2.2-5.376-2.2,5.376Z" transform="translate(1072.755 -156.134)" fill="#007482"/>
      <path id="패스_12" data-name="패스 12" d="M26.7,16.174h3.364l7.764,10.2v-10.2h3.6V32.748h-3.1L30.3,22.211V32.748H26.7Z" transform="translate(1085.417 -156.054)" fill="#007482"/>
      <path id="패스_13" data-name="패스 13" d="M32.486,16.174h3.649V23.42l6.721-7.246h4.409l-6.752,7.034,7.055,9.54H43.189l-5.14-7.055-1.915,1.985v5.07H32.486Z" transform="translate(1097.094 -156.054)" fill="#007482"/>
      <path id="패스_14" data-name="패스 14" d="M44.464,33.144a11.009,11.009,0,0,1-3.718-.652,9.807,9.807,0,0,1-3.312-2l2.155-2.582a10.816,10.816,0,0,0,2.33,1.47,6.227,6.227,0,0,0,2.615.542,3.183,3.183,0,0,0,1.764-.412,1.309,1.309,0,0,0,.63-1.149v-.048a1.468,1.468,0,0,0-.13-.627,1.324,1.324,0,0,0-.5-.509,5.208,5.208,0,0,0-1.021-.473c-.436-.158-1-.324-1.694-.5A20.838,20.838,0,0,1,41.3,25.52a6.431,6.431,0,0,1-1.733-.936,3.77,3.77,0,0,1-1.1-1.385,4.8,4.8,0,0,1-.394-2.058v-.048a4.809,4.809,0,0,1,.424-2.049,4.719,4.719,0,0,1,1.188-1.576,5.38,5.38,0,0,1,1.827-1.015,7.343,7.343,0,0,1,2.339-.358A9.614,9.614,0,0,1,50,18.2L48.112,20.95a12.137,12.137,0,0,0-2.182-1.194,5.519,5.519,0,0,0-2.13-.439,2.6,2.6,0,0,0-1.6.412,1.268,1.268,0,0,0-.533,1.033v.048a1.487,1.487,0,0,0,.155.7,1.363,1.363,0,0,0,.561.53,5,5,0,0,0,1.1.452q.7.214,1.77.5a16.732,16.732,0,0,1,2.243.749,6.2,6.2,0,0,1,1.661.991,3.769,3.769,0,0,1,1.018,1.364,4.6,4.6,0,0,1,.345,1.87v.048a5.131,5.131,0,0,1-.445,2.188,4.52,4.52,0,0,1-1.249,1.612,5.546,5.546,0,0,1-1.909.991,8.22,8.22,0,0,1-2.458.345" transform="translate(1107.139 -156.215)" fill="#007482"/>
      <path id="패스_15" data-name="패스 15" d="M44.947,14.381a3.246,3.246,0,1,1,3.243-3.246,3.247,3.247,0,0,1-3.243,3.246m0-6.188a2.943,2.943,0,1,0,2.943,2.943,2.947,2.947,0,0,0-2.943-2.943" transform="translate(1115.811 -172.822)" fill="#007482"/>
      <path id="패스_16" data-name="패스 16" d="M44.413,12.135l-.882-1.615H42.88v1.615h-.458v-3.8h1.133c.739,0,1.264.276,1.264,1.067A1.02,1.02,0,0,1,44,10.471l.927,1.664Zm-1.533-2h.609c.567,0,.879-.239.879-.733s-.312-.676-.879-.676H42.88Z" transform="translate(1117.268 -171.919)" fill="#007482"/>
    </g>
    <line id="선_1" data-name="선 1" x1="681.5" transform="translate(273 55.5)" fill="none" stroke="#007482" stroke-width="1"/>
    <text id="나의_일상에_맞는_티_라이프를_추천해줘_" data-name="나의 일상에 맞는 &apos;티&apos; 라이프를 추천해줘!" transform="translate(1157 63)" fill="#007482" font-size="20" font-family="Happiness-Sans-Regular, Happiness Sans" letter-spacing="-0.06em"><tspan x="-152.73" y="0">나의 일상에 맞는 &apos;티&apos; 라이프를 추천해줘!</tspan></text>
  </g>
</svg>
