<svg xmlns="http://www.w3.org/2000/svg" width="255" height="46.767" viewBox="0 0 255 46.767">
  <g id="그룹_132" data-name="그룹 132" transform="translate(-87 -26.14)">
    <g id="그룹_19" data-name="그룹 19" transform="translate(87 26.14)">
      <path id="패스_1" data-name="패스 1" d="M73.483,26.762H.373a.372.372,0,1,1,0-.744h73.11a.372.372,0,0,1,0,.744" transform="translate(0 20.005)" fill="#007482"/>
      <path id="패스_2" data-name="패스 2" d="M51.49,11.486H29.025a.372.372,0,1,1,0-.744H51.49a.372.372,0,1,1,0,.744" transform="translate(21.993 8.259)" fill="#007482"/>
      <path id="패스_3" data-name="패스 3" d="M19.647,11.486H.371a.372.372,0,0,1,0-.744H19.647a.372.372,0,1,1,0,.744" transform="translate(0.001 8.259)" fill="#007482"/>
      <path id="패스_4" data-name="패스 4" d="M29.43,7.286c-1.795,2.195-4.323,4.347-6.076,7.173a9.15,9.15,0,0,0-1.559,4.659,11.8,11.8,0,0,0,1.043,5.111,14.639,14.639,0,0,1,1.724-5.288,32.992,32.992,0,0,1,3.267-3.75,32.143,32.143,0,0,0,5.166-6.64A12.273,12.273,0,0,0,34.457,4.1a9.91,9.91,0,0,0-.115-2.245A8.818,8.818,0,0,0,33.536,0c-1.5,2.152-3.474,2.776-5.54,3.867A24.515,24.515,0,0,0,21.022,8.8C20.5,9.364,20,10,19.536,10.619a24.869,24.869,0,0,0-1.244,2.154,21.8,21.8,0,0,0-.817,2.448,20.55,20.55,0,0,0-.244,2.544,9.9,9.9,0,0,0,3.674,7.292,12.747,12.747,0,0,1-.989-6.1,10.11,10.11,0,0,1,2.246-5.322,20.836,20.836,0,0,1,3.664-3.589c1.252-1.01,2.478-1.883,3.6-2.758" transform="translate(13.237 0)" fill="#007482"/>
      <path id="패스_5" data-name="패스 5" d="M33.192,9.587c-3.493.728-7.26,3.315-10.514,6.836a72.659,72.659,0,0,0,7.538-3.254c2.822-1.357,5.051-2.441,8.206-2.723a6.544,6.544,0,0,0-4.34-2.829,9.7,9.7,0,0,0-6.1.882,11.672,11.672,0,0,0-6.167,7.138c3.44-3.639,7.758-6,11.373-6.05" transform="translate(16.762 5.724)" fill="#007482"/>
      <path id="패스_6" data-name="패스 6" d="M15.439,10.8A15.337,15.337,0,0,0,20.966,19.2c-.82-2.113-1.332-4.007-2.19-6.018a67.822,67.822,0,0,0-3.416-6.744A8.035,8.035,0,0,0,14,15.16a7.822,7.822,0,0,0,6.319,5A12.454,12.454,0,0,1,15.439,10.8" transform="translate(10.223 4.94)" fill="#007482"/>
      <path id="패스_7" data-name="패스 7" d="M5.55,26.1a5.256,5.256,0,0,1-2.062-.4A5.04,5.04,0,0,1,1.861,24.64,4.75,4.75,0,0,1,.793,23.063a4.986,4.986,0,0,1-.379-1.947V21.09A4.9,4.9,0,0,1,.8,19.145a5.052,5.052,0,0,1,1.074-1.591,4.974,4.974,0,0,1,1.633-1.079,5.316,5.316,0,0,1,2.069-.4,5.262,5.262,0,0,1,2.062.4A5.166,5.166,0,0,1,9.266,17.54a4.775,4.775,0,0,1,1.065,1.578,4.976,4.976,0,0,1,.381,1.943v.028a4.919,4.919,0,0,1-.386,1.945,5.09,5.09,0,0,1-1.074,1.593A4.942,4.942,0,0,1,7.619,25.7a5.316,5.316,0,0,1-2.069.4m.027-1.965A2.924,2.924,0,0,0,6.753,23.9a2.736,2.736,0,0,0,.923-.652,3.113,3.113,0,0,0,.593-.96,3.214,3.214,0,0,0,.214-1.173V21.09a3.254,3.254,0,0,0-.214-1.176,2.906,2.906,0,0,0-1.543-1.626,2.847,2.847,0,0,0-1.176-.243,2.875,2.875,0,0,0-1.183.236,2.693,2.693,0,0,0-.914.652,3.084,3.084,0,0,0-.6.96,3.172,3.172,0,0,0-.214,1.169v.028a3.233,3.233,0,0,0,.214,1.178,2.924,2.924,0,0,0,1.536,1.626,2.832,2.832,0,0,0,1.183.241" transform="translate(0.319 12.353)" fill="#007482"/>
      <path id="패스_8" data-name="패스 8" d="M6.492,19.759q1.462-.151,1.352-1.369H6.99V16.175H9.22v1.867a2.56,2.56,0,0,1-.663,1.973,2.753,2.753,0,0,1-1.885.615Z" transform="translate(5.009 12.433)" fill="#007482"/>
      <path id="패스_9" data-name="패스 9" d="M13.261,18.139H10.313V16.174H18.34v1.965H15.392v7.724H13.261Z" transform="translate(7.927 12.426)" fill="#007482"/>
      <path id="패스_10" data-name="패스 10" d="M15.375,16.174h2.133v3.834h3.929V16.174H23.57v9.689H21.437v-3.89H17.508v3.89H15.375Z" transform="translate(11.818 12.426)" fill="#007482"/>
      <path id="패스_11" data-name="패스 11" d="M24.608,16.135h1.965l4.151,9.758H28.5l-.886-2.172h-4.1l-.888,2.172H20.454Zm2.241,5.7-1.288-3.143-1.288,3.143Z" transform="translate(15.72 12.396)" fill="#007482"/>
      <path id="패스_12" data-name="패스 12" d="M26.7,16.174h1.966l4.539,5.965V16.174h2.1v9.689H33.5L28.809,19.7v6.16H26.7Z" transform="translate(20.525 12.426)" fill="#007482"/>
      <path id="패스_13" data-name="패스 13" d="M32.486,16.174h2.133V20.41l3.929-4.236h2.578l-3.947,4.112L41.3,25.863h-2.56l-3-4.124-1.12,1.16v2.964H32.486Z" transform="translate(24.95 12.426)" fill="#007482"/>
      <path id="패스_14" data-name="패스 14" d="M41.543,26.062a6.436,6.436,0,0,1-2.174-.381,5.733,5.733,0,0,1-1.936-1.169L38.693,23a6.323,6.323,0,0,0,1.362.859,3.64,3.64,0,0,0,1.529.317,1.861,1.861,0,0,0,1.031-.241.765.765,0,0,0,.368-.671v-.028a.858.858,0,0,0-.076-.367.774.774,0,0,0-.292-.3,3.045,3.045,0,0,0-.6-.276c-.255-.092-.586-.19-.99-.291a12.182,12.182,0,0,1-1.334-.4,3.759,3.759,0,0,1-1.013-.547,2.2,2.2,0,0,1-.645-.81,2.806,2.806,0,0,1-.23-1.2v-.028a2.811,2.811,0,0,1,.248-1.2,2.758,2.758,0,0,1,.694-.921,3.145,3.145,0,0,1,1.068-.593,4.293,4.293,0,0,1,1.368-.209,5.62,5.62,0,0,1,3.6,1.233l-1.105,1.605a7.1,7.1,0,0,0-1.276-.7,3.226,3.226,0,0,0-1.245-.257,1.519,1.519,0,0,0-.934.241.741.741,0,0,0-.312.6v.028a.869.869,0,0,0,.09.407.8.8,0,0,0,.328.31,2.925,2.925,0,0,0,.645.264q.407.125,1.035.291a9.781,9.781,0,0,1,1.311.438,3.624,3.624,0,0,1,.971.579,2.2,2.2,0,0,1,.6.8,2.688,2.688,0,0,1,.2,1.093v.028a3,3,0,0,1-.26,1.279,2.642,2.642,0,0,1-.73.942,3.242,3.242,0,0,1-1.116.579,4.805,4.805,0,0,1-1.437.2" transform="translate(28.767 12.365)" fill="#007482"/>
      <path id="패스_15" data-name="패스 15" d="M43.6,11.685a1.9,1.9,0,1,1,1.9-1.9,1.9,1.9,0,0,1-1.9,1.9m0-3.617a1.72,1.72,0,1,0,1.72,1.72,1.723,1.723,0,0,0-1.72-1.72" transform="translate(32.062 6.065)" fill="#007482"/>
      <path id="패스_16" data-name="패스 16" d="M43.586,10.557l-.516-.944H42.69v.944h-.268V8.335h.663c.432,0,.739.161.739.624a.6.6,0,0,1-.478.625l.542.973Zm-.9-1.169h.356c.331,0,.514-.14.514-.429s-.182-.4-.514-.4H42.69Z" transform="translate(32.616 6.408)" fill="#007482"/>
    </g>
    <line id="선_1" data-name="선 1" x1="42.851" transform="translate(173.189 57.812)" fill="none" stroke="#007482" stroke-width="1"/>
    <text id="나의_일상에_맞는_티_라이프를_추천해줘_" data-name="나의 일상에 맞는&apos;티&apos; 라이프를 추천해줘!" transform="translate(342 50)" fill="#007482" font-size="13" font-family="Happiness-Sans-Regular, Happiness Sans" letter-spacing="-0.06em"><tspan x="-83.46" y="0">나의 일상에 맞는</tspan><tspan x="-113.659" y="16">&apos;티&apos; 라이프를 추천해줘!</tspan></text>
  </g>
</svg>
