<svg xmlns="http://www.w3.org/2000/svg" width="338" height="49.922" viewBox="0 0 338 49.922">
  <g id="top01_15" transform="translate(-90 -25.078)">
    <g id="그룹_19" data-name="그룹 19" transform="translate(90 25.078)">
      <path id="패스_1" data-name="패스 1" d="M78.44,26.812H.4a.4.4,0,1,1,0-.794H78.44a.4.4,0,0,1,0,.794" transform="translate(0 23.11)" fill="#fff"/>
      <path id="패스_2" data-name="패스 2" d="M53.03,11.536H29.05a.4.4,0,1,1,0-.794H53.03a.4.4,0,1,1,0,.794" transform="translate(25.409 9.541)" fill="#fff"/>
      <path id="패스_3" data-name="패스 3" d="M20.973,11.536H.4a.4.4,0,0,1,0-.794H20.973a.4.4,0,0,1,0,.794" transform="translate(0.001 9.541)" fill="#fff"/>
      <path id="패스_4" data-name="패스 4" d="M30.253,7.778c-1.916,2.343-4.614,4.641-6.486,7.657A9.767,9.767,0,0,0,22.1,20.408a12.594,12.594,0,0,0,1.114,5.456,15.627,15.627,0,0,1,1.84-5.645,35.217,35.217,0,0,1,3.487-4,34.312,34.312,0,0,0,5.514-7.088A13.1,13.1,0,0,0,35.62,4.38a10.578,10.578,0,0,0-.123-2.4A9.413,9.413,0,0,0,34.636,0c-1.605,2.3-3.708,2.963-5.913,4.128a26.169,26.169,0,0,0-7.445,5.263c-.554.605-1.089,1.288-1.587,1.944a26.547,26.547,0,0,0-1.328,2.3,23.265,23.265,0,0,0-.872,2.613,21.936,21.936,0,0,0-.261,2.716,10.565,10.565,0,0,0,3.922,7.784A13.607,13.607,0,0,1,20.1,20.234a10.792,10.792,0,0,1,2.4-5.681,22.242,22.242,0,0,1,3.911-3.831c1.337-1.078,2.646-2.01,3.846-2.944" transform="translate(15.292 0)" fill="#fff"/>
      <path id="패스_5" data-name="패스 5" d="M33.96,9.731c-3.729.777-7.749,3.538-11.223,7.3a77.56,77.56,0,0,0,8.046-3.474c3.012-1.449,5.391-2.606,8.759-2.907a6.985,6.985,0,0,0-4.633-3.02A10.359,10.359,0,0,0,28.4,8.57a12.46,12.46,0,0,0-6.583,7.619C25.491,12.3,30.1,9.788,33.96,9.731" transform="translate(19.365 6.612)" fill="#fff"/>
      <path id="패스_6" data-name="패스 6" d="M15.583,11.1a16.372,16.372,0,0,0,5.9,8.958c-.876-2.256-1.422-4.278-2.337-6.424a72.4,72.4,0,0,0-3.646-7.2c-2.048,1.957-2.956,5.824-1.454,9.315,1.231,3.054,4.088,5.206,6.745,5.342A13.294,13.294,0,0,1,15.583,11.1" transform="translate(11.81 5.707)" fill="#fff"/>
      <path id="패스_7" data-name="패스 7" d="M5.9,26.776a5.61,5.61,0,0,1-2.2-.422,5.38,5.38,0,0,1-1.736-1.137,5.071,5.071,0,0,1-1.14-1.683,5.323,5.323,0,0,1-.4-2.078v-.028a5.231,5.231,0,0,1,.412-2.076,5.393,5.393,0,0,1,1.146-1.7A5.31,5.31,0,0,1,3.716,16.5a5.675,5.675,0,0,1,2.209-.422,5.617,5.617,0,0,1,2.2.422,5.515,5.515,0,0,1,1.738,1.137A5.1,5.1,0,0,1,11,19.323a5.312,5.312,0,0,1,.407,2.074v.03a5.251,5.251,0,0,1-.412,2.076,5.433,5.433,0,0,1-1.146,1.7A5.276,5.276,0,0,1,8.1,26.354a5.675,5.675,0,0,1-2.209.422m.028-2.1a3.121,3.121,0,0,0,1.256-.25,2.92,2.92,0,0,0,.985-.7A3.323,3.323,0,0,0,8.8,22.708a3.431,3.431,0,0,0,.229-1.252v-.028A3.474,3.474,0,0,0,8.8,20.172a3.1,3.1,0,0,0-1.647-1.736A3.039,3.039,0,0,0,5.9,18.177a3.069,3.069,0,0,0-1.263.252,2.875,2.875,0,0,0-.976.7,3.292,3.292,0,0,0-.635,1.025A3.386,3.386,0,0,0,2.793,21.4v.03a3.451,3.451,0,0,0,.229,1.258,3.121,3.121,0,0,0,1.64,1.736,3.023,3.023,0,0,0,1.263.257" transform="translate(0.369 14.271)" fill="#fff"/>
      <path id="패스_8" data-name="패스 8" d="M6.492,20q1.56-.162,1.443-1.462H7.023V16.175H9.4v1.993A2.732,2.732,0,0,1,8.7,20.275a2.939,2.939,0,0,1-2.012.656Z" transform="translate(5.785 14.363)" fill="#fff"/>
      <path id="패스_9" data-name="패스 9" d="M13.46,18.271H10.313v-2.1h8.568v2.1H15.735v8.245H13.46Z" transform="translate(9.157 14.355)" fill="#fff"/>
      <path id="패스_10" data-name="패스 10" d="M15.375,16.174h2.277v4.092h4.194V16.174h2.277V26.516H21.846V22.364H17.652v4.153H15.375Z" transform="translate(13.652 14.355)" fill="#fff"/>
      <path id="패스_11" data-name="패스 11" d="M24.889,16.135h2.1l4.431,10.416H29.039l-.946-2.318H23.722l-.947,2.318h-2.32Zm2.392,6.087-1.375-3.355-1.375,3.355Z" transform="translate(18.16 14.32)" fill="#fff"/>
      <path id="패스_12" data-name="패스 12" d="M26.7,16.174h2.1l4.845,6.367V16.174h2.247V26.516H33.96l-5.009-6.575v6.575H26.7Z" transform="translate(23.711 14.355)" fill="#fff"/>
      <path id="패스_13" data-name="패스 13" d="M32.486,16.174h2.277V20.7l4.194-4.521h2.751L37.5,20.563l4.4,5.953H39.165l-3.207-4.4-1.2,1.239v3.164H32.486Z" transform="translate(28.825 14.355)" fill="#fff"/>
      <path id="패스_14" data-name="패스 14" d="M41.82,26.734a6.87,6.87,0,0,1-2.32-.407,6.12,6.12,0,0,1-2.067-1.248l1.345-1.611a6.749,6.749,0,0,0,1.454.917,3.886,3.886,0,0,0,1.632.338,1.986,1.986,0,0,0,1.1-.257.817.817,0,0,0,.393-.717v-.03a.916.916,0,0,0-.081-.391.826.826,0,0,0-.312-.318,3.25,3.25,0,0,0-.637-.3c-.272-.1-.626-.2-1.057-.31a13,13,0,0,1-1.424-.429,4.013,4.013,0,0,1-1.082-.584,2.352,2.352,0,0,1-.688-.864,3,3,0,0,1-.246-1.284v-.03a3,3,0,0,1,.265-1.278,2.944,2.944,0,0,1,.741-.983,3.357,3.357,0,0,1,1.14-.634,4.582,4.582,0,0,1,1.46-.223,6,6,0,0,1,3.841,1.316L44.1,19.124a7.574,7.574,0,0,0-1.362-.745,3.444,3.444,0,0,0-1.329-.274,1.622,1.622,0,0,0-1,.257.791.791,0,0,0-.333.645v.03a.928.928,0,0,0,.1.435.851.851,0,0,0,.35.331,3.123,3.123,0,0,0,.688.282q.434.133,1.1.31a10.441,10.441,0,0,1,1.4.467,3.869,3.869,0,0,1,1.036.618,2.352,2.352,0,0,1,.635.851A2.869,2.869,0,0,1,45.6,23.5v.03a3.2,3.2,0,0,1-.278,1.365,2.82,2.82,0,0,1-.779,1.006,3.461,3.461,0,0,1-1.191.618,5.129,5.129,0,0,1-1.534.216" transform="translate(33.233 14.285)" fill="#fff"/>
      <path id="패스_15" data-name="패스 15" d="M43.727,11.941a2.025,2.025,0,1,1,2.023-2.025,2.026,2.026,0,0,1-2.023,2.025m0-3.862a1.836,1.836,0,1,0,1.836,1.836,1.839,1.839,0,0,0-1.836-1.836" transform="translate(37.038 7.007)" fill="#fff"/>
      <path id="패스_16" data-name="패스 16" d="M43.664,10.706,43.114,9.7h-.407v1.008h-.286V8.335h.707c.461,0,.789.172.789.666a.637.637,0,0,1-.511.668l.579,1.038Zm-.957-1.248h.38c.354,0,.548-.149.548-.458s-.195-.422-.548-.422h-.38Z" transform="translate(37.678 7.403)" fill="#fff"/>
    </g>
    <line id="선_1" data-name="선 1" x1="85.767" transform="translate(196.818 58.886)" fill="none" stroke="#fff" stroke-width="1"/>
    <text id="나의_일상에_맞는_티_라이프를_추천해줘_" data-name="나의 일상에 맞는&apos;티&apos; 라이프를 추천해줘!" transform="translate(428 52)" fill="#fff" font-size="14" font-family="Happiness-Sans-Regular, Happiness Sans" letter-spacing="-0.06em"><tspan x="-89.88" y="0">나의 일상에 맞는</tspan><tspan x="-122.402" y="18">&apos;티&apos; 라이프를 추천해줘!</tspan></text>
  </g>
</svg>
