<svg xmlns="http://www.w3.org/2000/svg" width="200.56" height="37.676" viewBox="0 0 200.56 37.676">
  <g id="top01_17" transform="translate(-87 -26.14)">
    <g id="그룹_19" data-name="그룹 19" transform="translate(87 26.14)">
      <path id="패스_1" data-name="패스 1" d="M59.2,26.617H.3a.3.3,0,1,1,0-.6H59.2a.3.3,0,0,1,0,.6" transform="translate(0 11.059)" fill="#fff"/>
      <path id="패스_2" data-name="패스 2" d="M47.051,11.341h-18.1a.3.3,0,1,1,0-.6h18.1a.3.3,0,1,1,0,.6" transform="translate(12.148 4.566)" fill="#fff"/>
      <path id="패스_3" data-name="패스 3" d="M15.828,11.341H.3a.3.3,0,0,1,0-.6H15.828a.3.3,0,1,1,0,.6" transform="translate(0 4.566)" fill="#fff"/>
      <path id="패스_4" data-name="패스 4" d="M27.058,5.87c-1.446,1.768-3.482,3.5-4.9,5.779A7.371,7.371,0,0,0,20.907,15.4a9.5,9.5,0,0,0,.841,4.117,11.793,11.793,0,0,1,1.389-4.26,26.578,26.578,0,0,1,2.632-3.021A25.9,25.9,0,0,0,29.93,6.889a9.887,9.887,0,0,0,1.179-3.584A7.983,7.983,0,0,0,31.016,1.5,7.1,7.1,0,0,0,30.367,0c-1.212,1.734-2.8,2.236-4.463,3.116a19.75,19.75,0,0,0-5.619,3.972c-.418.457-.822.972-1.2,1.467a20.035,20.035,0,0,0-1,1.735,17.558,17.558,0,0,0-.658,1.972,16.555,16.555,0,0,0-.2,2.049,7.974,7.974,0,0,0,2.96,5.874,10.269,10.269,0,0,1-.8-4.915,8.145,8.145,0,0,1,1.81-4.287,16.786,16.786,0,0,1,2.951-2.891c1.009-.813,2-1.517,2.9-2.222" transform="translate(7.314 0)" fill="#fff"/>
      <path id="패스_5" data-name="패스 5" d="M30.981,9.171c-2.814.587-5.849,2.67-8.47,5.507a58.535,58.535,0,0,0,6.073-2.622,18,18,0,0,1,6.611-2.194,5.272,5.272,0,0,0-3.5-2.279,7.818,7.818,0,0,0-4.911.711,9.4,9.4,0,0,0-4.968,5.75c2.772-2.931,6.25-4.831,9.162-4.874" transform="translate(9.262 3.163)" fill="#fff"/>
      <path id="패스_6" data-name="패스 6" d="M15.023,9.954a12.356,12.356,0,0,0,4.453,6.76c-.661-1.7-1.073-3.228-1.764-4.848A54.638,54.638,0,0,0,14.96,6.433a6.473,6.473,0,0,0-1.1,7.03,6.3,6.3,0,0,0,5.091,4.032,10.033,10.033,0,0,1-3.93-7.541" transform="translate(5.65 2.729)" fill="#fff"/>
      <path id="패스_7" data-name="패스 7" d="M4.551,24.152a4.234,4.234,0,0,1-1.661-.318,4.06,4.06,0,0,1-1.31-.858,3.827,3.827,0,0,1-.861-1.27,4.017,4.017,0,0,1-.305-1.568v-.021a3.948,3.948,0,0,1,.311-1.567,4.07,4.07,0,0,1,.865-1.282A4.007,4.007,0,0,1,2.906,16.4a4.283,4.283,0,0,1,1.667-.318,4.239,4.239,0,0,1,1.661.318,4.162,4.162,0,0,1,1.312.858A3.847,3.847,0,0,1,8.4,18.528a4.009,4.009,0,0,1,.307,1.566v.023A3.963,3.963,0,0,1,8.4,21.683a4.1,4.1,0,0,1-.865,1.283,3.981,3.981,0,0,1-1.316.868,4.283,4.283,0,0,1-1.667.318m.021-1.583a2.355,2.355,0,0,0,.948-.188,2.2,2.2,0,0,0,.744-.525,2.508,2.508,0,0,0,.478-.774,2.589,2.589,0,0,0,.173-.945v-.021a2.621,2.621,0,0,0-.173-.948A2.341,2.341,0,0,0,5.5,17.858a2.293,2.293,0,0,0-.948-.2,2.316,2.316,0,0,0-.953.19,2.17,2.17,0,0,0-.736.525,2.485,2.485,0,0,0-.48.774,2.556,2.556,0,0,0-.173.942v.023a2.6,2.6,0,0,0,.173.949,2.355,2.355,0,0,0,1.237,1.31,2.282,2.282,0,0,0,.953.194" transform="translate(0.177 6.826)" fill="#fff"/>
      <path id="패스_8" data-name="패스 8" d="M6.492,19.062q1.177-.122,1.089-1.1H6.893V16.175h1.8v1.5a2.062,2.062,0,0,1-.534,1.59,2.218,2.218,0,0,1-1.519.5Z" transform="translate(2.773 6.872)" fill="#fff"/>
      <path id="패스_9" data-name="패스 9" d="M12.688,17.757H10.313V16.174h6.466v1.583H14.4v6.222H12.688Z" transform="translate(4.381 6.866)" fill="#fff"/>
      <path id="패스_10" data-name="패스 10" d="M15.375,16.174h1.718v3.088h3.165V16.174h1.718v7.805H20.259V20.845H17.093v3.134H15.375Z" transform="translate(6.532 6.866)" fill="#fff"/>
      <path id="패스_11" data-name="패스 11" d="M23.8,16.135h1.583L28.727,24H26.933l-.714-1.75h-3.3L22.205,24H20.454Zm1.805,4.594L24.569,18.2l-1.038,2.532Z" transform="translate(8.688 6.85)" fill="#fff"/>
      <path id="패스_12" data-name="패스 12" d="M26.7,16.174h1.584l3.656,4.805V16.174h1.7v7.805H32.18L28.4,19.017v4.962H26.7Z" transform="translate(11.344 6.866)" fill="#fff"/>
      <path id="패스_13" data-name="패스 13" d="M32.486,16.174H34.2v3.412l3.165-3.412h2.077l-3.18,3.312,3.322,4.493H37.527l-2.42-3.322-.9.935v2.388H32.486Z" transform="translate(13.785 6.866)" fill="#fff"/>
      <path id="패스_14" data-name="패스 14" d="M40.744,24.124a5.185,5.185,0,0,1-1.751-.307,4.619,4.619,0,0,1-1.56-.942l1.015-1.216a5.094,5.094,0,0,0,1.1.692,2.933,2.933,0,0,0,1.232.255,1.5,1.5,0,0,0,.831-.194.616.616,0,0,0,.3-.541v-.023a.691.691,0,0,0-.061-.3.623.623,0,0,0-.235-.24,2.453,2.453,0,0,0-.481-.223c-.206-.074-.472-.153-.8-.234a9.813,9.813,0,0,1-1.075-.324,3.029,3.029,0,0,1-.816-.441,1.775,1.775,0,0,1-.519-.652,2.261,2.261,0,0,1-.186-.969v-.023a2.265,2.265,0,0,1,.2-.965,2.222,2.222,0,0,1,.559-.742,2.534,2.534,0,0,1,.861-.478,3.458,3.458,0,0,1,1.1-.168,4.527,4.527,0,0,1,2.9.993l-.891,1.293a5.716,5.716,0,0,0-1.028-.562,2.6,2.6,0,0,0-1-.207,1.224,1.224,0,0,0-.752.194.6.6,0,0,0-.251.487v.023a.7.7,0,0,0,.073.328.642.642,0,0,0,.264.25,2.357,2.357,0,0,0,.519.213q.328.1.833.234a7.88,7.88,0,0,1,1.056.353,2.92,2.92,0,0,1,.782.467,1.775,1.775,0,0,1,.48.642,2.165,2.165,0,0,1,.163.881v.023a2.417,2.417,0,0,1-.21,1.03,2.128,2.128,0,0,1-.588.759,2.612,2.612,0,0,1-.9.467,3.871,3.871,0,0,1-1.157.163" transform="translate(15.898 6.832)" fill="#fff"/>
      <path id="패스_15" data-name="패스 15" d="M43.231,10.947a1.528,1.528,0,1,1,1.527-1.528,1.529,1.529,0,0,1-1.527,1.528m0-2.914a1.386,1.386,0,1,0,1.386,1.386,1.388,1.388,0,0,0-1.386-1.386" transform="translate(17.723 3.352)" fill="#fff"/>
      <path id="패스_16" data-name="패스 16" d="M43.36,10.125l-.415-.761h-.307v.761h-.216V8.335h.534c.348,0,.6.13.6.5a.48.48,0,0,1-.385.5l.437.784Zm-.722-.942h.287c.267,0,.414-.113.414-.345s-.147-.318-.414-.318h-.287Z" transform="translate(18.029 3.542)" fill="#fff"/>
    </g>
    <line id="선_1" data-name="선 1" x1="34.522" transform="translate(156.436 51.655)" fill="none" stroke="#fff" stroke-width="1"/>
    <path id="패스_4010" data-name="패스 4010" d="M-63.18-1.67h.72a17.558,17.558,0,0,0,4.08-.48l-.13-.6a19.6,19.6,0,0,1-3.89.35V-7.05h-.78ZM-57.37.89h.78V-3.95h1.39v-.66h-1.39V-8.05h-.78Zm2.71-6.17A2.193,2.193,0,0,0-52.2-3.17a2.182,2.182,0,0,0,2.43-2.11A2.182,2.182,0,0,0-52.2-7.39,2.193,2.193,0,0,0-54.66-5.28Zm-.4,3.56.06.67,1.72-.01a18.049,18.049,0,0,0,4.93-.62V.9h.78V-8.05h-.78v5.8a21.552,21.552,0,0,1-5.11.52Zm1.19-3.56A1.5,1.5,0,0,1-52.2-6.71a1.482,1.482,0,0,1,1.64,1.43A1.494,1.494,0,0,1-52.2-3.85,1.51,1.51,0,0,1-53.87-5.28Zm9.45-.42a2.145,2.145,0,0,0,2.35,2.05A2.151,2.151,0,0,0-39.72-5.7a2.132,2.132,0,0,0-2.35-2.05A2.133,2.133,0,0,0-44.42-5.7Zm.81,0a1.439,1.439,0,0,1,1.54-1.36A1.439,1.439,0,0,1-40.53-5.7a1.439,1.439,0,0,1-1.54,1.36A1.439,1.439,0,0,1-43.61-5.7Zm.7,6.71h5.98V.35h-5.2V-.68h4.86v-2.2h-5.62v.66h4.84v.91h-4.86Zm4.86-4.54h.78V-8.05h-.78Zm1.69,0,.38.67A4.093,4.093,0,0,0-33.57-5.3a3.347,3.347,0,0,0,.74,1.03,4.594,4.594,0,0,0,1.64.92l.27-.67a3.848,3.848,0,0,1-1.37-.74,2.526,2.526,0,0,1-.94-1.79l.01-.95H-34l-.01.92A3.374,3.374,0,0,1-36.36-3.53Zm1.64,2.81c0,.99.99,1.78,2.99,1.78s2.98-.79,2.98-1.78-.98-1.8-2.98-1.8S-34.72-1.71-34.72-.72Zm.77,0c0-.64.76-1.19,2.22-1.19s2.21.54,2.21,1.19c0,.61-.75,1.17-2.21,1.17S-33.95-.11-33.95-.72Zm4.15-2.1h.78V-4.97h1.28v-.66h-1.28V-8.05h-.78Zm2.18-1.53c0,2.35,1.13,3.04,2.14,3.04.95,0,2.01-.63,2.1-2.74h.86V.64h.76V-7.98h-.76v3.25h-.86c-.12-2.05-1.17-2.66-2.1-2.66C-26.49-7.39-27.62-6.7-27.62-4.35Zm.78,0c0-1.85.78-2.4,1.36-2.4s1.33.55,1.33,2.4c0,1.83-.76,2.4-1.33,2.4C-26.01-1.95-26.84-2.52-26.84-4.35ZM-20.56.89h.76V-8.05h-.76Zm3.58-8.28v3.82h4.25V-7.39Zm.78,3.14V-6.71h2.69v2.46Zm.13,4.6.26.65A4.861,4.861,0,0,0-12.67-.6,3.158,3.158,0,0,0-11.32.49a5.515,5.515,0,0,0,1.59.53l.22-.65A5.609,5.609,0,0,1-10.9-.1c-.57-.25-1.37-.73-1.36-1.48v-.21h2.44v-.66h-5.95v.66h2.73v.18C-13.06-.57-14.85.21-16.07.35Zm5.16-3.48h.78V-5.12h1.29V-5.8h-1.29V-8.06h-.78Zm3.5-4.52v3.03H-1.5v-.72H-6.63V-7.65ZM-8.76-2.74H-.44v-.67H-8.76ZM-7.28,1h6.03V.36H-6.5V-1.71h-.78ZM-85.71,4.7h-.92l.19,1.89h.54Zm1.15.94V11.7h.72a23.161,23.161,0,0,0,4.43-.44l-.1-.59a24.948,24.948,0,0,1-4.27.35V8.9h3.58V8.24h-3.58V6.3h3.73V5.64Zm6.17,8.26h.78V4.95h-.78Zm3.2-9.2h-.92l.19,1.89h.54Zm2.99,1.07v.66h3.16V8.26h-3.23v3.42h.72a17.383,17.383,0,0,0,4.24-.39l-.1-.62a18.749,18.749,0,0,1-4.08.29V8.87h3.23V5.77Zm5.74,8.12h.78V9h1.39V8.34h-1.39V4.95h-.78Zm2.65-5.22c0,2.06,1.16,3,2.37,3,1.19,0,2.34-.94,2.34-3s-1.15-3-2.34-3C-62.65,5.67-63.81,6.61-63.81,8.67Zm.76,0c0-1.56.79-2.32,1.61-2.32s1.58.76,1.58,2.32c0,1.54-.77,2.32-1.58,2.32S-63.05,10.21-63.05,8.67Zm5.62,5.22h.78V4.95h-.78Zm2.68-8.26V6.3h6.55V5.63Zm-.89,7.28h8.32v-.68h-8.32Zm.94-2.51h6.45V9.75H-49.7l.2-1.92V7.02h-.83l-.07,2.73h-2.12l-.07-2.73h-.83v.81l.2,1.92H-54.7Zm8.92-5.24v.66h4.98v.71h-5V8.6h5.99V7.94h-5.21V7.15h5V5.16Zm-1.26,4.75h8.32V9.27h-8.32ZM-45.85,14h6.09v-.66h-5.31V12.6h5.1V10.69h-5.86v.66h5.08V12h-5.1Zm10.13-8.13v.67h2.75c-.15,1.01-1.45,1.83-3.06,2.12l.27.67c.99-.22,2.63-.77,3.19-2A2.821,2.821,0,0,0-31.1,8.66a9.011,9.011,0,0,0,1.81.57l.19-.67a6.814,6.814,0,0,1-1.71-.52,2.121,2.121,0,0,1-1.38-1.5h2.76V5.87h-2.76V4.81h-.78V5.87Zm-1.02,4.87h3.81v3.21h.78V10.74h3.73v-.66h-8.32Zm8.86-4.58v.67h2.22v.18a3.383,3.383,0,0,1-2.3,2.96l.39.68a4.235,4.235,0,0,0,2.32-2.36,2.953,2.953,0,0,0,.67.98,4.588,4.588,0,0,0,1.55.97l.3-.71a3.59,3.59,0,0,1-1.3-.76,2.679,2.679,0,0,1-.89-1.7V6.83h2V6.16H-24.9V4.99h-.78V6.16ZM-26.16,14h5.97v-.66h-5.19V11.16h-.78Zm3.08-5.65h1.75V11.4h.78V4.95h-.78V7.68h-1.75Zm3.36-1.8v.66h4.59V6.55h-1.82V5.24h-.78V6.55Zm.35,3.4a1.906,1.906,0,0,0,2.07,1.9,1.9,1.9,0,0,0,2.06-1.9A1.894,1.894,0,0,0-17.3,8.04,1.908,1.908,0,0,0-19.37,9.95Zm.8,0A1.214,1.214,0,0,1-17.3,8.72a1.218,1.218,0,0,1,1.26,1.23,1.21,1.21,0,0,1-1.26,1.22A1.206,1.206,0,0,1-18.57,9.95Zm4.13,3.78h.78V9.17h1.25V13.9h.78V4.95h-.78V8.5h-1.25V5.09h-.78ZM-10.3,5.6v.66h2.1v.18c0,1.04-1.21,1.92-2.41,2.28l.33.63A4.3,4.3,0,0,0-7.82,7.47a2.566,2.566,0,0,0,.99,1.14,4.789,4.789,0,0,0,1.32.57l.27-.65a4.061,4.061,0,0,1-1.23-.49,1.885,1.885,0,0,1-.95-1.6V6.26H-5.5V5.6Zm-.57,4.45.06.68H-9c.25,0,.51,0,.79-.01v3.09h.76V10.68a18.915,18.915,0,0,0,3.32-.45v1.45H-6.22v.68h2.09V13.9h.78V4.95h-.78V9.61a23.149,23.149,0,0,1-5.15.44Zm9.09,2.31v.94H-1v-.94Zm0-3.98.14,2.69h.47L-1,8.38V5.53h-.78Z" transform="translate(288 45)" fill="#fff"/>
  </g>
</svg>
