<svg xmlns="http://www.w3.org/2000/svg" width="254.428" height="46.767" viewBox="0 0 254.428 46.767">
  <g id="top01_16" transform="translate(-87 -26.14)">
    <g id="그룹_19" data-name="그룹 19" transform="translate(87 26.14)">
      <path id="패스_1" data-name="패스 1" d="M73.483,26.762H.373a.372.372,0,1,1,0-.744h73.11a.372.372,0,0,1,0,.744" transform="translate(0 20.005)" fill="#fff"/>
      <path id="패스_2" data-name="패스 2" d="M51.49,11.486H29.025a.372.372,0,1,1,0-.744H51.49a.372.372,0,1,1,0,.744" transform="translate(21.993 8.259)" fill="#fff"/>
      <path id="패스_3" data-name="패스 3" d="M19.647,11.486H.371a.372.372,0,0,1,0-.744H19.647a.372.372,0,1,1,0,.744" transform="translate(0.001 8.259)" fill="#fff"/>
      <path id="패스_4" data-name="패스 4" d="M29.43,7.286c-1.795,2.195-4.323,4.347-6.076,7.173a9.15,9.15,0,0,0-1.559,4.659,11.8,11.8,0,0,0,1.043,5.111,14.639,14.639,0,0,1,1.724-5.288,32.992,32.992,0,0,1,3.267-3.75,32.143,32.143,0,0,0,5.166-6.64A12.273,12.273,0,0,0,34.457,4.1a9.91,9.91,0,0,0-.115-2.245A8.818,8.818,0,0,0,33.536,0c-1.5,2.152-3.474,2.776-5.54,3.867A24.515,24.515,0,0,0,21.022,8.8C20.5,9.364,20,10,19.536,10.619a24.869,24.869,0,0,0-1.244,2.154,21.8,21.8,0,0,0-.817,2.448,20.55,20.55,0,0,0-.244,2.544,9.9,9.9,0,0,0,3.674,7.292,12.747,12.747,0,0,1-.989-6.1,10.11,10.11,0,0,1,2.246-5.322,20.836,20.836,0,0,1,3.664-3.589c1.252-1.01,2.478-1.883,3.6-2.758" transform="translate(13.237 0)" fill="#fff"/>
      <path id="패스_5" data-name="패스 5" d="M33.192,9.587c-3.493.728-7.26,3.315-10.514,6.836a72.659,72.659,0,0,0,7.538-3.254c2.822-1.357,5.051-2.441,8.206-2.723a6.544,6.544,0,0,0-4.34-2.829,9.7,9.7,0,0,0-6.1.882,11.672,11.672,0,0,0-6.167,7.138c3.44-3.639,7.758-6,11.373-6.05" transform="translate(16.762 5.724)" fill="#fff"/>
      <path id="패스_6" data-name="패스 6" d="M15.439,10.8A15.337,15.337,0,0,0,20.966,19.2c-.82-2.113-1.332-4.007-2.19-6.018a67.822,67.822,0,0,0-3.416-6.744A8.035,8.035,0,0,0,14,15.16a7.822,7.822,0,0,0,6.319,5A12.454,12.454,0,0,1,15.439,10.8" transform="translate(10.223 4.94)" fill="#fff"/>
      <path id="패스_7" data-name="패스 7" d="M5.55,26.1a5.256,5.256,0,0,1-2.062-.4A5.04,5.04,0,0,1,1.861,24.64,4.75,4.75,0,0,1,.793,23.063a4.986,4.986,0,0,1-.379-1.947V21.09A4.9,4.9,0,0,1,.8,19.145a5.052,5.052,0,0,1,1.074-1.591,4.974,4.974,0,0,1,1.633-1.079,5.316,5.316,0,0,1,2.069-.4,5.262,5.262,0,0,1,2.062.4A5.166,5.166,0,0,1,9.266,17.54a4.775,4.775,0,0,1,1.065,1.578,4.976,4.976,0,0,1,.381,1.943v.028a4.919,4.919,0,0,1-.386,1.945,5.09,5.09,0,0,1-1.074,1.593A4.942,4.942,0,0,1,7.619,25.7a5.316,5.316,0,0,1-2.069.4m.027-1.965A2.924,2.924,0,0,0,6.753,23.9a2.736,2.736,0,0,0,.923-.652,3.113,3.113,0,0,0,.593-.96,3.214,3.214,0,0,0,.214-1.173V21.09a3.254,3.254,0,0,0-.214-1.176,2.906,2.906,0,0,0-1.543-1.626,2.847,2.847,0,0,0-1.176-.243,2.875,2.875,0,0,0-1.183.236,2.693,2.693,0,0,0-.914.652,3.084,3.084,0,0,0-.6.96,3.172,3.172,0,0,0-.214,1.169v.028a3.233,3.233,0,0,0,.214,1.178,2.924,2.924,0,0,0,1.536,1.626,2.832,2.832,0,0,0,1.183.241" transform="translate(0.319 12.353)" fill="#fff"/>
      <path id="패스_8" data-name="패스 8" d="M6.492,19.759q1.462-.151,1.352-1.369H6.99V16.175H9.22v1.867a2.56,2.56,0,0,1-.663,1.973,2.753,2.753,0,0,1-1.885.615Z" transform="translate(5.009 12.433)" fill="#fff"/>
      <path id="패스_9" data-name="패스 9" d="M13.261,18.139H10.313V16.174H18.34v1.965H15.392v7.724H13.261Z" transform="translate(7.927 12.426)" fill="#fff"/>
      <path id="패스_10" data-name="패스 10" d="M15.375,16.174h2.133v3.834h3.929V16.174H23.57v9.689H21.437v-3.89H17.508v3.89H15.375Z" transform="translate(11.818 12.426)" fill="#fff"/>
      <path id="패스_11" data-name="패스 11" d="M24.608,16.135h1.965l4.151,9.758H28.5l-.886-2.172h-4.1l-.888,2.172H20.454Zm2.241,5.7-1.288-3.143-1.288,3.143Z" transform="translate(15.72 12.396)" fill="#fff"/>
      <path id="패스_12" data-name="패스 12" d="M26.7,16.174h1.966l4.539,5.965V16.174h2.1v9.689H33.5L28.809,19.7v6.16H26.7Z" transform="translate(20.525 12.426)" fill="#fff"/>
      <path id="패스_13" data-name="패스 13" d="M32.486,16.174h2.133V20.41l3.929-4.236h2.578l-3.947,4.112L41.3,25.863h-2.56l-3-4.124-1.12,1.16v2.964H32.486Z" transform="translate(24.95 12.426)" fill="#fff"/>
      <path id="패스_14" data-name="패스 14" d="M41.543,26.062a6.436,6.436,0,0,1-2.174-.381,5.733,5.733,0,0,1-1.936-1.169L38.693,23a6.323,6.323,0,0,0,1.362.859,3.64,3.64,0,0,0,1.529.317,1.861,1.861,0,0,0,1.031-.241.765.765,0,0,0,.368-.671v-.028a.858.858,0,0,0-.076-.367.774.774,0,0,0-.292-.3,3.045,3.045,0,0,0-.6-.276c-.255-.092-.586-.19-.99-.291a12.182,12.182,0,0,1-1.334-.4,3.759,3.759,0,0,1-1.013-.547,2.2,2.2,0,0,1-.645-.81,2.806,2.806,0,0,1-.23-1.2v-.028a2.811,2.811,0,0,1,.248-1.2,2.758,2.758,0,0,1,.694-.921,3.145,3.145,0,0,1,1.068-.593,4.293,4.293,0,0,1,1.368-.209,5.62,5.62,0,0,1,3.6,1.233l-1.105,1.605a7.1,7.1,0,0,0-1.276-.7,3.226,3.226,0,0,0-1.245-.257,1.519,1.519,0,0,0-.934.241.741.741,0,0,0-.312.6v.028a.869.869,0,0,0,.09.407.8.8,0,0,0,.328.31,2.925,2.925,0,0,0,.645.264q.407.125,1.035.291a9.781,9.781,0,0,1,1.311.438,3.624,3.624,0,0,1,.971.579,2.2,2.2,0,0,1,.6.8,2.688,2.688,0,0,1,.2,1.093v.028a3,3,0,0,1-.26,1.279,2.642,2.642,0,0,1-.73.942,3.242,3.242,0,0,1-1.116.579,4.805,4.805,0,0,1-1.437.2" transform="translate(28.767 12.365)" fill="#fff"/>
      <path id="패스_15" data-name="패스 15" d="M43.6,11.685a1.9,1.9,0,1,1,1.9-1.9,1.9,1.9,0,0,1-1.9,1.9m0-3.617a1.72,1.72,0,1,0,1.72,1.72,1.723,1.723,0,0,0-1.72-1.72" transform="translate(32.062 6.065)" fill="#fff"/>
      <path id="패스_16" data-name="패스 16" d="M43.586,10.557l-.516-.944H42.69v.944h-.268V8.335h.663c.432,0,.739.161.739.624a.6.6,0,0,1-.478.625l.542.973Zm-.9-1.169h.356c.331,0,.514-.14.514-.429s-.182-.4-.514-.4H42.69Z" transform="translate(32.616 6.408)" fill="#fff"/>
    </g>
    <line id="선_1" data-name="선 1" x1="42.851" transform="translate(173.189 57.812)" fill="none" stroke="#fff" stroke-width="1"/>
    <path id="패스_4009" data-name="패스 4009" d="M-82.134-2.171h.936a22.826,22.826,0,0,0,5.3-.624l-.169-.78a25.482,25.482,0,0,1-5.057.455V-9.165h-1.014Zm7.553,3.328h1.014V-5.135h1.807v-.858h-1.807v-4.472h-1.014Zm3.523-8.021c0,1.885,1.586,2.743,3.2,2.743,1.573,0,3.159-.858,3.159-2.743s-1.586-2.743-3.159-2.743C-69.472-9.607-71.058-8.749-71.058-6.864Zm-.52,4.628.078.871,2.236-.013a23.464,23.464,0,0,0,6.409-.806V1.17h1.014V-10.465h-1.014v7.54a28.017,28.017,0,0,1-6.643.676Zm1.547-4.628A1.947,1.947,0,0,1-67.86-8.723a1.927,1.927,0,0,1,2.132,1.859A1.943,1.943,0,0,1-67.86-5.005,1.963,1.963,0,0,1-70.031-6.864Zm12.285-.546a2.789,2.789,0,0,0,3.055,2.665A2.8,2.8,0,0,0-51.636-7.41a2.772,2.772,0,0,0-3.055-2.665A2.773,2.773,0,0,0-57.746-7.41Zm1.053,0a1.87,1.87,0,0,1,2-1.768,1.87,1.87,0,0,1,2,1.768,1.87,1.87,0,0,1-2,1.768A1.87,1.87,0,0,1-56.693-7.41Zm.91,8.723h7.774V.455h-6.76V-.884h6.318v-2.86h-7.306v.858h6.292V-1.7h-6.318Zm6.318-5.9h1.014v-5.876h-1.014Zm2.2,0,.494.871A5.322,5.322,0,0,0-43.641-6.89a4.351,4.351,0,0,0,.962,1.339,5.972,5.972,0,0,0,2.132,1.2l.351-.871a5,5,0,0,1-1.781-.962A3.284,3.284,0,0,1-43.2-8.515l.013-1.235H-44.2l-.013,1.2A4.386,4.386,0,0,1-47.268-4.589Zm2.132,3.653c0,1.287,1.287,2.314,3.887,2.314S-37.375.351-37.375-.936s-1.274-2.34-3.874-2.34S-45.136-2.223-45.136-.936Zm1,0c0-.832.988-1.547,2.886-1.547s2.873.7,2.873,1.547c0,.793-.975,1.521-2.873,1.521S-44.135-.143-44.135-.936Zm5.4-2.73h1.014V-6.461h1.664v-.858h-1.664v-3.146H-38.74Zm2.834-1.989c0,3.055,1.469,3.952,2.782,3.952,1.235,0,2.613-.819,2.73-3.562h1.118v6.1h.988V-10.374h-.988v4.225h-1.118c-.156-2.665-1.521-3.458-2.73-3.458C-34.437-9.607-35.906-8.71-35.906-5.655Zm1.014,0c0-2.405,1.014-3.12,1.768-3.12s1.729.715,1.729,3.12c0,2.379-.988,3.12-1.729,3.12C-33.813-2.535-34.892-3.276-34.892-5.655Zm8.164,6.812h.988V-10.465h-.988Zm4.654-10.764v4.966h5.525V-9.607Zm1.014,4.082v-3.2h3.5v3.2Zm.169,5.98.338.845c1.9-.377,3.393-1.053,4.082-2.08A4.1,4.1,0,0,0-14.716.637a7.169,7.169,0,0,0,2.067.689l.286-.845A7.292,7.292,0,0,1-14.17-.13c-.741-.325-1.781-.949-1.768-1.924v-.273h3.172v-.858H-20.5v.858h3.549v.234C-16.978-.741-19.3.273-20.891.455Zm6.708-4.524h1.014V-6.656h1.677V-7.54h-1.677v-2.938h-1.014Zm4.55-5.876v3.939H-1.95v-.936H-8.619v-3Zm-1.755,6.383H-.572v-.871H-11.388ZM-9.464,1.3h7.839V.468H-8.45V-2.223H-9.464ZM-111.423,5.21h-1.2l.247,2.457h.7Zm1.5,1.222V14.31h.936a30.109,30.109,0,0,0,5.759-.572l-.13-.767a32.433,32.433,0,0,1-5.551.455V10.67h4.654V9.812h-4.654V7.29h4.849V6.432Zm8.021,10.738h1.014V5.535h-1.014Zm4.16-11.96h-1.2l.247,2.457h.7ZM-93.86,6.6v.858h4.108V9.838h-4.2v4.446h.936a22.6,22.6,0,0,0,5.512-.507l-.13-.806a24.373,24.373,0,0,1-5.3.377V10.631h4.2V6.6ZM-86.4,17.157h1.014V10.8h1.807V9.942h-1.807V5.535H-86.4Zm3.445-6.786c0,2.678,1.508,3.9,3.081,3.9,1.547,0,3.042-1.222,3.042-3.9s-1.495-3.9-3.042-3.9C-81.445,6.471-82.953,7.693-82.953,10.371Zm.988,0c0-2.028,1.027-3.016,2.093-3.016s2.054.988,2.054,3.016c0,2-1,3.016-2.054,3.016S-81.965,12.373-81.965,10.371Zm7.306,6.786h1.014V5.535h-1.014Zm3.484-10.738V7.29h8.515V6.419Zm-1.157,9.464h10.816V15H-72.332Zm1.222-3.263h8.385v-.845H-64.61l.26-2.5V8.226h-1.079l-.091,3.549h-2.756l-.091-3.549h-1.079V9.279l.26,2.5H-71.11Zm11.6-6.812v.858h6.474v.923h-6.5V10.28h7.787V9.422h-6.773V8.395h6.5V5.808Zm-1.638,6.175h10.816v-.832H-61.152Zm1.547,5.317h7.917v-.858h-6.9V15.48h6.63V13h-7.618v.858h6.6V14.7h-6.63ZM-46.436,6.731V7.6h3.575c-.195,1.313-1.885,2.379-3.978,2.756l.351.871c1.287-.286,3.419-1,4.147-2.6a3.667,3.667,0,0,0,1.911,1.729,11.715,11.715,0,0,0,2.353.741l.247-.871a8.858,8.858,0,0,1-2.223-.676A2.758,2.758,0,0,1-41.847,7.6h3.588V6.731h-3.588V5.353h-1.014V6.731Zm-1.326,6.331h4.953v4.173h1.014V13.062h4.849V12.2H-47.762Zm11.518-5.954v.871h2.886v.234a4.4,4.4,0,0,1-2.99,3.848l.507.884a5.506,5.506,0,0,0,3.016-3.068,3.839,3.839,0,0,0,.871,1.274,5.965,5.965,0,0,0,2.015,1.261l.39-.923a4.667,4.667,0,0,1-1.69-.988A3.483,3.483,0,0,1-32.4,8.291V7.979h2.6V7.108H-32.37V5.587h-1.014V7.108ZM-34.008,17.3h7.761v-.858h-6.747V13.608h-1.014Zm4-7.345h2.275V13.92h1.014V5.535h-1.014V9.084H-30Zm4.368-2.34v.858h5.967V7.615h-2.366v-1.7h-1.014v1.7Zm.455,4.42a2.478,2.478,0,0,0,2.691,2.47,2.467,2.467,0,0,0,2.678-2.47A2.463,2.463,0,0,0-22.49,9.552,2.481,2.481,0,0,0-25.181,12.035Zm1.04,0a1.579,1.579,0,0,1,1.651-1.6,1.583,1.583,0,0,1,1.638,1.6,1.572,1.572,0,0,1-1.638,1.586A1.568,1.568,0,0,1-24.141,12.035Zm5.369,4.914h1.014V11.021h1.625V17.17h1.014V5.535h-1.014V10.15h-1.625V5.717h-1.014ZM-13.39,6.38v.858h2.73v.234c0,1.352-1.573,2.5-3.133,2.964l.429.819a5.584,5.584,0,0,0,3.2-2.444,3.336,3.336,0,0,0,1.287,1.482,6.225,6.225,0,0,0,1.716.741l.351-.845a5.279,5.279,0,0,1-1.6-.637,2.45,2.45,0,0,1-1.235-2.08V7.238h2.5V6.38Zm-.741,5.785.078.884H-11.7c.325,0,.663,0,1.027-.013v4.017h.988V12.984A24.59,24.59,0,0,0-5.369,12.4v1.885H-8.086v.884h2.717v2h1.014V5.535H-5.369v6.058a30.094,30.094,0,0,1-6.7.572Zm11.817,3V16.39H-1.3V15.168Zm0-5.174.182,3.5h.611l.221-3.5v-3.7H-2.314Z" transform="translate(342 50)" fill="#fff"/>
  </g>
</svg>
