<svg xmlns="http://www.w3.org/2000/svg" width="201" height="37.676" viewBox="0 0 201 37.676">
  <g id="top01_17" transform="translate(-87 -26.14)">
    <g id="그룹_19" data-name="그룹 19" transform="translate(87 26.14)">
      <path id="패스_1" data-name="패스 1" d="M59.2,26.617H.3a.3.3,0,1,1,0-.6H59.2a.3.3,0,0,1,0,.6" transform="translate(0 11.059)" fill="#fff"/>
      <path id="패스_2" data-name="패스 2" d="M47.051,11.341h-18.1a.3.3,0,1,1,0-.6h18.1a.3.3,0,1,1,0,.6" transform="translate(12.148 4.566)" fill="#fff"/>
      <path id="패스_3" data-name="패스 3" d="M15.828,11.341H.3a.3.3,0,0,1,0-.6H15.828a.3.3,0,1,1,0,.6" transform="translate(0 4.566)" fill="#fff"/>
      <path id="패스_4" data-name="패스 4" d="M27.058,5.87c-1.446,1.768-3.482,3.5-4.9,5.779A7.371,7.371,0,0,0,20.907,15.4a9.5,9.5,0,0,0,.841,4.117,11.793,11.793,0,0,1,1.389-4.26,26.578,26.578,0,0,1,2.632-3.021A25.9,25.9,0,0,0,29.93,6.889a9.887,9.887,0,0,0,1.179-3.584A7.983,7.983,0,0,0,31.016,1.5,7.1,7.1,0,0,0,30.367,0c-1.212,1.734-2.8,2.236-4.463,3.116a19.75,19.75,0,0,0-5.619,3.972c-.418.457-.822.972-1.2,1.467a20.035,20.035,0,0,0-1,1.735,17.558,17.558,0,0,0-.658,1.972,16.555,16.555,0,0,0-.2,2.049,7.974,7.974,0,0,0,2.96,5.874,10.269,10.269,0,0,1-.8-4.915,8.145,8.145,0,0,1,1.81-4.287,16.786,16.786,0,0,1,2.951-2.891c1.009-.813,2-1.517,2.9-2.222" transform="translate(7.314 0)" fill="#fff"/>
      <path id="패스_5" data-name="패스 5" d="M30.981,9.171c-2.814.587-5.849,2.67-8.47,5.507a58.535,58.535,0,0,0,6.073-2.622,18,18,0,0,1,6.611-2.194,5.272,5.272,0,0,0-3.5-2.279,7.818,7.818,0,0,0-4.911.711,9.4,9.4,0,0,0-4.968,5.75c2.772-2.931,6.25-4.831,9.162-4.874" transform="translate(9.262 3.163)" fill="#fff"/>
      <path id="패스_6" data-name="패스 6" d="M15.023,9.954a12.356,12.356,0,0,0,4.453,6.76c-.661-1.7-1.073-3.228-1.764-4.848A54.638,54.638,0,0,0,14.96,6.433a6.473,6.473,0,0,0-1.1,7.03,6.3,6.3,0,0,0,5.091,4.032,10.033,10.033,0,0,1-3.93-7.541" transform="translate(5.65 2.729)" fill="#fff"/>
      <path id="패스_7" data-name="패스 7" d="M4.551,24.152a4.234,4.234,0,0,1-1.661-.318,4.06,4.06,0,0,1-1.31-.858,3.827,3.827,0,0,1-.861-1.27,4.017,4.017,0,0,1-.305-1.568v-.021a3.948,3.948,0,0,1,.311-1.567,4.07,4.07,0,0,1,.865-1.282A4.007,4.007,0,0,1,2.906,16.4a4.283,4.283,0,0,1,1.667-.318,4.239,4.239,0,0,1,1.661.318,4.162,4.162,0,0,1,1.312.858A3.847,3.847,0,0,1,8.4,18.528a4.009,4.009,0,0,1,.307,1.566v.023A3.963,3.963,0,0,1,8.4,21.683a4.1,4.1,0,0,1-.865,1.283,3.981,3.981,0,0,1-1.316.868,4.283,4.283,0,0,1-1.667.318m.021-1.583a2.355,2.355,0,0,0,.948-.188,2.2,2.2,0,0,0,.744-.525,2.508,2.508,0,0,0,.478-.774,2.589,2.589,0,0,0,.173-.945v-.021a2.621,2.621,0,0,0-.173-.948A2.341,2.341,0,0,0,5.5,17.858a2.293,2.293,0,0,0-.948-.2,2.316,2.316,0,0,0-.953.19,2.17,2.17,0,0,0-.736.525,2.485,2.485,0,0,0-.48.774,2.556,2.556,0,0,0-.173.942v.023a2.6,2.6,0,0,0,.173.949,2.355,2.355,0,0,0,1.237,1.31,2.282,2.282,0,0,0,.953.194" transform="translate(0.177 6.826)" fill="#fff"/>
      <path id="패스_8" data-name="패스 8" d="M6.492,19.062q1.177-.122,1.089-1.1H6.893V16.175h1.8v1.5a2.062,2.062,0,0,1-.534,1.59,2.218,2.218,0,0,1-1.519.5Z" transform="translate(2.773 6.872)" fill="#fff"/>
      <path id="패스_9" data-name="패스 9" d="M12.688,17.757H10.313V16.174h6.466v1.583H14.4v6.222H12.688Z" transform="translate(4.381 6.866)" fill="#fff"/>
      <path id="패스_10" data-name="패스 10" d="M15.375,16.174h1.718v3.088h3.165V16.174h1.718v7.805H20.259V20.845H17.093v3.134H15.375Z" transform="translate(6.532 6.866)" fill="#fff"/>
      <path id="패스_11" data-name="패스 11" d="M23.8,16.135h1.583L28.727,24H26.933l-.714-1.75h-3.3L22.205,24H20.454Zm1.805,4.594L24.569,18.2l-1.038,2.532Z" transform="translate(8.688 6.85)" fill="#fff"/>
      <path id="패스_12" data-name="패스 12" d="M26.7,16.174h1.584l3.656,4.805V16.174h1.7v7.805H32.18L28.4,19.017v4.962H26.7Z" transform="translate(11.344 6.866)" fill="#fff"/>
      <path id="패스_13" data-name="패스 13" d="M32.486,16.174H34.2v3.412l3.165-3.412h2.077l-3.18,3.312,3.322,4.493H37.527l-2.42-3.322-.9.935v2.388H32.486Z" transform="translate(13.785 6.866)" fill="#fff"/>
      <path id="패스_14" data-name="패스 14" d="M40.744,24.124a5.185,5.185,0,0,1-1.751-.307,4.619,4.619,0,0,1-1.56-.942l1.015-1.216a5.094,5.094,0,0,0,1.1.692,2.933,2.933,0,0,0,1.232.255,1.5,1.5,0,0,0,.831-.194.616.616,0,0,0,.3-.541v-.023a.691.691,0,0,0-.061-.3.623.623,0,0,0-.235-.24,2.453,2.453,0,0,0-.481-.223c-.206-.074-.472-.153-.8-.234a9.813,9.813,0,0,1-1.075-.324,3.029,3.029,0,0,1-.816-.441,1.775,1.775,0,0,1-.519-.652,2.261,2.261,0,0,1-.186-.969v-.023a2.265,2.265,0,0,1,.2-.965,2.222,2.222,0,0,1,.559-.742,2.534,2.534,0,0,1,.861-.478,3.458,3.458,0,0,1,1.1-.168,4.527,4.527,0,0,1,2.9.993l-.891,1.293a5.716,5.716,0,0,0-1.028-.562,2.6,2.6,0,0,0-1-.207,1.224,1.224,0,0,0-.752.194.6.6,0,0,0-.251.487v.023a.7.7,0,0,0,.073.328.642.642,0,0,0,.264.25,2.357,2.357,0,0,0,.519.213q.328.1.833.234a7.88,7.88,0,0,1,1.056.353,2.92,2.92,0,0,1,.782.467,1.775,1.775,0,0,1,.48.642,2.165,2.165,0,0,1,.163.881v.023a2.417,2.417,0,0,1-.21,1.03,2.128,2.128,0,0,1-.588.759,2.612,2.612,0,0,1-.9.467,3.871,3.871,0,0,1-1.157.163" transform="translate(15.898 6.832)" fill="#fff"/>
      <path id="패스_15" data-name="패스 15" d="M43.231,10.947a1.528,1.528,0,1,1,1.527-1.528,1.529,1.529,0,0,1-1.527,1.528m0-2.914a1.386,1.386,0,1,0,1.386,1.386,1.388,1.388,0,0,0-1.386-1.386" transform="translate(17.723 3.352)" fill="#fff"/>
      <path id="패스_16" data-name="패스 16" d="M43.36,10.125l-.415-.761h-.307v.761h-.216V8.335h.534c.348,0,.6.13.6.5a.48.48,0,0,1-.385.5l.437.784Zm-.722-.942h.287c.267,0,.414-.113.414-.345s-.147-.318-.414-.318h-.287Z" transform="translate(18.029 3.542)" fill="#fff"/>
    </g>
    <line id="선_1" data-name="선 1" x1="34.522" transform="translate(156.436 51.655)" fill="none" stroke="#fff" stroke-width="1"/>
    <text id="나의_일상에_맞는_티_라이프를_추천해줘_" data-name="나의 일상에 맞는&apos;티&apos; 라이프를 추천해줘!" transform="translate(288 45)" fill="#fff" font-size="10" font-family="Happiness-Sans-Regular, Happiness Sans" letter-spacing="-0.06em"><tspan x="-64.2" y="0">나의 일상에 맞는</tspan><tspan x="-87.43" y="13">&apos;티&apos; 라이프를 추천해줘!</tspan></text>
  </g>
</svg>
