<svg xmlns="http://www.w3.org/2000/svg" width="1737.73" height="80" viewBox="0 0 1737.73 80">
  <g id="top01_01" transform="translate(-90 -5)">
    <g id="그룹_19" data-name="그룹 19" transform="translate(-941.33 193.803)">
      <path id="패스_1" data-name="패스 1" d="M125.7,27.291H.638a.636.636,0,1,1,0-1.273H125.7a.636.636,0,0,1,0,1.273" transform="translate(1031.33 -136.094)" fill="#fff"/>
      <path id="패스_2" data-name="패스 2" d="M67.718,12.015H29.289a.636.636,0,1,1,0-1.273H67.718a.636.636,0,1,1,0,1.273" transform="translate(1089.312 -167.042)" fill="#fff"/>
      <path id="패스_3" data-name="패스 3" d="M33.608,12.015H.634a.636.636,0,0,1,0-1.273H33.608a.636.636,0,0,1,0,1.273" transform="translate(1031.332 -167.042)" fill="#fff"/>
      <path id="패스_4" data-name="패스 4" d="M38.1,12.464C35.029,16.219,30.7,19.9,27.7,24.734a15.652,15.652,0,0,0-2.667,7.97c-.309,2.867.724,5.818,1.785,8.743.721-3.682,1.479-6.952,2.949-9.046a56.435,56.435,0,0,1,5.588-6.415A54.985,54.985,0,0,0,44.2,14.628a20.994,20.994,0,0,0,2.5-7.609,16.952,16.952,0,0,0-.2-3.84A15.084,15.084,0,0,0,45.123,0C42.55,3.682,39.18,4.749,35.647,6.615a41.936,41.936,0,0,0-11.931,8.434c-.888.97-1.746,2.064-2.543,3.115a42.543,42.543,0,0,0-2.127,3.685,37.281,37.281,0,0,0-1.4,4.188,35.152,35.152,0,0,0-.418,4.352,16.931,16.931,0,0,0,6.285,12.473c-1.176-3.367-2.242-6.885-1.691-10.437a17.3,17.3,0,0,1,3.843-9.1,35.643,35.643,0,0,1,6.267-6.14c2.142-1.727,4.24-3.221,6.164-4.718" transform="translate(1066.217 -188.803)" fill="#fff"/>
      <path id="패스_5" data-name="패스 5" d="M41.274,11.106C35.3,12.351,28.856,16.775,23.289,22.8a124.29,124.29,0,0,0,12.894-5.567c4.827-2.321,8.64-4.176,14.037-4.658A11.194,11.194,0,0,0,42.8,7.736,16.6,16.6,0,0,0,32.368,9.245,19.967,19.967,0,0,0,21.819,21.454C27.7,15.23,35.089,11.2,41.274,11.106" transform="translate(1075.508 -173.719)" fill="#fff"/>
      <path id="패스_6" data-name="패스 6" d="M16.959,13.909c1.364,4.7,4.106,10.6,9.455,14.355-1.4-3.615-2.279-6.855-3.746-10.294A116.017,116.017,0,0,0,16.825,6.433c-3.282,3.136-4.737,9.334-2.33,14.928,1.973,4.894,6.552,8.343,10.809,8.561a21.3,21.3,0,0,1-8.346-16.013" transform="translate(1058.268 -175.782)" fill="#fff"/>
      <path id="패스_7" data-name="패스 7" d="M9.2,33.22a8.991,8.991,0,0,1-3.527-.676A8.621,8.621,0,0,1,2.89,30.723a8.126,8.126,0,0,1-1.827-2.7A8.53,8.53,0,0,1,.414,24.7V24.65a8.383,8.383,0,0,1,.661-3.327A8.642,8.642,0,0,1,2.911,18.6a8.509,8.509,0,0,1,2.794-1.846,9.094,9.094,0,0,1,3.54-.676,9,9,0,0,1,3.527.676,8.837,8.837,0,0,1,2.785,1.821,8.168,8.168,0,0,1,1.821,2.7A8.513,8.513,0,0,1,18.03,24.6v.048a8.415,8.415,0,0,1-.661,3.327A8.707,8.707,0,0,1,15.533,30.7a8.454,8.454,0,0,1-2.794,1.842,9.094,9.094,0,0,1-3.54.676m.045-3.361a5,5,0,0,0,2.012-.4,4.68,4.68,0,0,0,1.579-1.115A5.325,5.325,0,0,0,13.851,26.7a5.5,5.5,0,0,0,.367-2.006V24.65a5.566,5.566,0,0,0-.367-2.012,4.971,4.971,0,0,0-2.639-2.782A4.87,4.87,0,0,0,9.2,19.441a4.918,4.918,0,0,0-2.024.4,4.607,4.607,0,0,0-1.564,1.115A5.276,5.276,0,0,0,4.593,22.6a5.427,5.427,0,0,0-.367,2v.048a5.53,5.53,0,0,0,.367,2.015A5,5,0,0,0,7.22,29.447a4.845,4.845,0,0,0,2.024.412" transform="translate(1032.171 -156.246)" fill="#fff"/>
      <path id="패스_8" data-name="패스 8" d="M6.492,22.306q2.5-.259,2.312-2.342H7.344V16.175h3.815v3.194a4.379,4.379,0,0,1-1.133,3.376A4.709,4.709,0,0,1,6.8,23.8Z" transform="translate(1044.511 -156.041)" fill="#fff"/>
      <path id="패스_9" data-name="패스 9" d="M15.356,19.535H10.313V16.174H24.044v3.361H19V32.748H15.356Z" transform="translate(1052.218 -156.054)" fill="#fff"/>
      <path id="패스_10" data-name="패스 10" d="M15.375,16.174h3.649v6.558h6.721V16.174h3.649V32.748H25.745V26.093H19.024v6.655H15.375Z" transform="translate(1062.471 -156.054)" fill="#fff"/>
      <path id="패스_11" data-name="패스 11" d="M27.56,16.135h3.361l7.1,16.691H34.212L32.7,29.111H25.691l-1.518,3.715H20.454Zm3.833,9.755-2.2-5.376-2.2,5.376Z" transform="translate(1072.755 -156.134)" fill="#fff"/>
      <path id="패스_12" data-name="패스 12" d="M26.7,16.174h3.364l7.764,10.2v-10.2h3.6V32.748h-3.1L30.3,22.211V32.748H26.7Z" transform="translate(1085.417 -156.054)" fill="#fff"/>
      <path id="패스_13" data-name="패스 13" d="M32.486,16.174h3.649V23.42l6.721-7.246h4.409l-6.752,7.034,7.055,9.54H43.189l-5.14-7.055-1.915,1.985v5.07H32.486Z" transform="translate(1097.094 -156.054)" fill="#fff"/>
      <path id="패스_14" data-name="패스 14" d="M44.464,33.144a11.009,11.009,0,0,1-3.718-.652,9.807,9.807,0,0,1-3.312-2l2.155-2.582a10.816,10.816,0,0,0,2.33,1.47,6.227,6.227,0,0,0,2.615.542,3.183,3.183,0,0,0,1.764-.412,1.309,1.309,0,0,0,.63-1.149v-.048a1.468,1.468,0,0,0-.13-.627,1.324,1.324,0,0,0-.5-.509,5.208,5.208,0,0,0-1.021-.473c-.436-.158-1-.324-1.694-.5A20.838,20.838,0,0,1,41.3,25.52a6.431,6.431,0,0,1-1.733-.936,3.77,3.77,0,0,1-1.1-1.385,4.8,4.8,0,0,1-.394-2.058v-.048a4.809,4.809,0,0,1,.424-2.049,4.719,4.719,0,0,1,1.188-1.576,5.38,5.38,0,0,1,1.827-1.015,7.343,7.343,0,0,1,2.339-.358A9.614,9.614,0,0,1,50,18.2L48.112,20.95a12.137,12.137,0,0,0-2.182-1.194,5.519,5.519,0,0,0-2.13-.439,2.6,2.6,0,0,0-1.6.412,1.268,1.268,0,0,0-.533,1.033v.048a1.487,1.487,0,0,0,.155.7,1.363,1.363,0,0,0,.561.53,5,5,0,0,0,1.1.452q.7.214,1.77.5a16.732,16.732,0,0,1,2.243.749,6.2,6.2,0,0,1,1.661.991,3.769,3.769,0,0,1,1.018,1.364,4.6,4.6,0,0,1,.345,1.87v.048a5.131,5.131,0,0,1-.445,2.188,4.52,4.52,0,0,1-1.249,1.612,5.546,5.546,0,0,1-1.909.991,8.22,8.22,0,0,1-2.458.345" transform="translate(1107.139 -156.215)" fill="#fff"/>
      <path id="패스_15" data-name="패스 15" d="M44.947,14.381a3.246,3.246,0,1,1,3.243-3.246,3.247,3.247,0,0,1-3.243,3.246m0-6.188a2.943,2.943,0,1,0,2.943,2.943,2.947,2.947,0,0,0-2.943-2.943" transform="translate(1115.811 -172.822)" fill="#fff"/>
      <path id="패스_16" data-name="패스 16" d="M44.413,12.135l-.882-1.615H42.88v1.615h-.458v-3.8h1.133c.739,0,1.264.276,1.264,1.067A1.02,1.02,0,0,1,44,10.471l.927,1.664Zm-1.533-2h.609c.567,0,.879-.239.879-.733s-.312-.676-.879-.676H42.88Z" transform="translate(1117.268 -171.919)" fill="#fff"/>
    </g>
    <path id="패스_3994" data-name="패스 3994" d="M-150.69-3.34h1.44a35.117,35.117,0,0,0,8.16-.96l-.26-1.2a39.2,39.2,0,0,1-7.78.7v-9.3h-1.56Zm11.62,5.12h1.56V-7.9h2.78V-9.22h-2.78V-16.1h-1.56Zm5.42-12.34c0,2.9,2.44,4.22,4.92,4.22,2.42,0,4.86-1.32,4.86-4.22s-2.44-4.22-4.86-4.22C-131.21-14.78-133.65-13.46-133.65-10.56Zm-.8,7.12.12,1.34,3.44-.02a36.1,36.1,0,0,0,9.86-1.24V1.8h1.56V-16.1h-1.56V-4.5a43.1,43.1,0,0,1-10.22,1.04Zm2.38-7.12c0-1.9,1.62-2.86,3.34-2.86,1.68,0,3.28.96,3.28,2.86,0,1.86-1.6,2.86-3.28,2.86C-130.45-7.7-132.07-8.7-132.07-10.56Zm18.9-.84c0,2.5,2.12,4.1,4.7,4.1,2.56,0,4.7-1.6,4.7-4.1,0-2.56-2.14-4.1-4.7-4.1C-111.05-15.5-113.17-13.94-113.17-11.4Zm1.62,0a2.877,2.877,0,0,1,3.08-2.72,2.877,2.877,0,0,1,3.08,2.72,2.877,2.877,0,0,1-3.08,2.72A2.877,2.877,0,0,1-111.55-11.4Zm1.4,13.42h11.96V.7h-10.4V-1.36h9.72v-4.4h-11.24v1.32h9.68v1.82h-9.72Zm9.72-9.08h1.56V-16.1h-1.56Zm3.38,0,.76,1.34a8.187,8.187,0,0,0,4.82-4.88,6.694,6.694,0,0,0,1.48,2.06A9.188,9.188,0,0,0-86.71-6.7l.54-1.34a7.7,7.7,0,0,1-2.74-1.48,5.053,5.053,0,0,1-1.88-3.58l.02-1.9h-1.56l-.02,1.84A6.748,6.748,0,0,1-97.05-7.06Zm3.28,5.62c0,1.98,1.98,3.56,5.98,3.56s5.96-1.58,5.96-3.56-1.96-3.6-5.96-3.6S-93.77-3.42-93.77-1.44Zm1.54,0c0-1.28,1.52-2.38,4.44-2.38s4.42,1.08,4.42,2.38c0,1.22-1.5,2.34-4.42,2.34S-92.23-.22-92.23-1.44Zm8.3-4.2h1.56v-4.3h2.56v-1.32h-2.56V-16.1h-1.56Zm4.36-3.06c0,4.7,2.26,6.08,4.28,6.08,1.9,0,4.02-1.26,4.2-5.48h1.72V1.28h1.52V-15.96h-1.52v6.5h-1.72c-.24-4.1-2.34-5.32-4.2-5.32C-77.31-14.78-79.57-13.4-79.57-8.7Zm1.56,0c0-3.7,1.56-4.8,2.72-4.8,1.14,0,2.66,1.1,2.66,4.8,0,3.66-1.52,4.8-2.66,4.8C-76.35-3.9-78.01-5.04-78.01-8.7ZM-65.45,1.78h1.52V-16.1h-1.52Zm7.16-16.56v7.64h8.5v-7.64Zm1.56,6.28v-4.92h5.38V-8.5Zm.26,9.2.52,1.3c2.92-.58,5.22-1.62,6.28-3.2A6.315,6.315,0,0,0-46.97.98a11.029,11.029,0,0,0,3.18,1.06l.44-1.3A11.218,11.218,0,0,1-46.13-.2c-1.14-.5-2.74-1.46-2.72-2.96v-.42h4.88V-4.9h-11.9v1.32h5.46v.36C-50.45-1.14-54.03.42-56.47.7Zm10.32-6.96h1.56v-3.98h2.58V-11.6h-2.58v-4.52h-1.56Zm7-9.04v6.06h11.82v-1.44H-37.59V-15.3Zm-2.7,9.82h16.64V-6.82H-41.85ZM-38.89,2h12.06V.72h-10.5V-3.42h-1.56Zm20.2-18.6h-1.84l.38,3.78h1.08Zm2.3,1.88V-2.6h1.44a46.322,46.322,0,0,0,8.86-.88l-.2-1.18a49.9,49.9,0,0,1-8.54.7V-8.2h7.16V-9.52h-7.16V-13.4h7.46v-1.32ZM-4.05,1.8h1.56V-16.1H-4.05Zm6.4-18.4H.51l.38,3.78H1.97Zm5.98,2.14v1.32h6.32v3.66H8.19v6.84H9.63a34.766,34.766,0,0,0,8.48-.78l-.2-1.24a37.5,37.5,0,0,1-8.16.58V-8.26h6.46v-6.2ZM19.81,1.78h1.56V-8h2.78V-9.32H21.37V-16.1H19.81Zm5.3-10.44c0,4.12,2.32,6,4.74,6,2.38,0,4.68-1.88,4.68-6s-2.3-6-4.68-6C27.43-14.66,25.11-12.78,25.11-8.66Zm1.52,0c0-3.12,1.58-4.64,3.22-4.64,1.62,0,3.16,1.52,3.16,4.64,0,3.08-1.54,4.64-3.16,4.64C28.21-4.02,26.63-5.58,26.63-8.66ZM37.87,1.78h1.56V-16.1H37.87Zm5.36-16.52v1.34h13.1v-1.34ZM41.45-.18H58.09V-1.54H41.45ZM43.33-5.2h12.9V-6.5h-2.9l.4-3.84v-1.62H52.07L51.93-6.5H47.69l-.14-5.46H45.89v1.62l.4,3.84H43.33ZM61.17-15.68v1.32h9.96v1.42h-10V-8.8H73.11v-1.32H62.69V-11.7h10v-3.98Zm-2.52,9.5H75.29V-7.46H58.65ZM61.03,2H73.21V.68H62.59V-.8h10.2V-4.62H61.07V-3.3H71.23V-2H61.03ZM81.29-14.26v1.34h5.5c-.3,2.02-2.9,3.66-6.12,4.24l.54,1.34c1.98-.44,5.26-1.54,6.38-4a5.642,5.642,0,0,0,2.94,2.66,18.023,18.023,0,0,0,3.62,1.14l.38-1.34a13.627,13.627,0,0,1-3.42-1.04c-1.42-.66-2.58-1.64-2.76-3h5.52v-1.34H88.35v-2.12H86.79v2.12ZM79.25-4.52h7.62V1.9h1.56V-4.52h7.46V-5.84H79.25Zm17.72-9.16v1.34h4.44v.36c0,2.64-2.02,4.88-4.6,5.92l.78,1.36a8.47,8.47,0,0,0,4.64-4.72,5.905,5.905,0,0,0,1.34,1.96,9.176,9.176,0,0,0,3.1,1.94l.6-1.42a7.181,7.181,0,0,1-2.6-1.52,5.359,5.359,0,0,1-1.78-3.4v-.48h4v-1.34h-3.96v-2.34h-1.56v2.34ZM100.41,2h11.94V.68H101.97V-3.68h-1.56Zm6.16-11.3h3.5v6.1h1.56V-16.1h-1.56v5.46h-3.5Zm6.72-3.6v1.32h9.18V-12.9h-3.64v-2.62h-1.56v2.62Zm.7,6.8c0,2.36,1.84,3.8,4.14,3.8a3.8,3.8,0,0,0,4.12-3.8c0-2.4-1.82-3.82-4.12-3.82A3.817,3.817,0,0,0,113.99-6.1Zm1.6,0a2.429,2.429,0,0,1,2.54-2.46,2.435,2.435,0,0,1,2.52,2.46,2.419,2.419,0,0,1-2.52,2.44A2.413,2.413,0,0,1,115.59-6.1Zm8.26,7.56h1.56V-7.66h2.5V1.8h1.56V-16.1h-1.56V-9h-2.5v-6.82h-1.56Zm8.28-16.26v1.32h4.2v.36c0,2.08-2.42,3.84-4.82,4.56l.66,1.26c1.84-.72,3.94-1.76,4.92-3.76a5.132,5.132,0,0,0,1.98,2.28,9.577,9.577,0,0,0,2.64,1.14l.54-1.3a8.122,8.122,0,0,1-2.46-.98,3.769,3.769,0,0,1-1.9-3.2v-.36h3.84V-14.8Zm-1.14,8.9.12,1.36h3.62c.5,0,1.02,0,1.58-.02V1.62h1.52V-4.64a37.83,37.83,0,0,0,6.64-.9v2.9h-4.18v1.36h4.18V1.8h1.56V-16.1h-1.56v9.32a46.3,46.3,0,0,1-10.3.88Zm18.18,4.62V.6h1.56V-1.28Zm0-7.96.28,5.38h.94l.34-5.38v-5.7h-1.56Z" transform="translate(1677 63)" fill="#fff"/>
    <line id="선_1" data-name="선 1" x1="1201" transform="translate(273 55.5)" fill="none" stroke="#fff" stroke-width="1"/>
  </g>
</svg>
